<svg width="142" height="63" viewBox="0 0 142 63" fill="none" xmlns="http://www.w3.org/2000/svg">
<path d="M101.168 34.1428H85.2113C84.9932 34.1428 84.8166 33.9548 84.8166 33.722V4.2351C84.8166 4.00294 84.9932 3.81432 85.2113 3.81432H101.168C101.633 3.81432 102.078 3.61815 102.406 3.26934C102.763 2.88919 102.923 2.42198 102.923 1.96406C102.923 1.00469 102.223 0.0847778 101.168 0.0847778H84.816H84.6405H82.9436C82.0439 0.0847778 81.3145 0.861912 81.3145 1.82012V36.1364C81.3145 37.0947 82.0439 37.8718 82.9436 37.8718H84.6405H84.816H101.168C101.633 37.8718 102.078 37.6756 102.406 37.3268C102.763 36.9467 102.923 36.4794 102.923 36.0215C102.924 35.0627 102.224 34.1428 101.168 34.1428Z" fill="white"/>
<path d="M91.6248 10.7992H99.4926C99.9579 10.7992 100.403 10.603 100.731 10.2542C101.088 9.87402 101.248 9.40681 101.248 8.94889C101.248 7.98952 100.548 7.06961 99.4926 7.06961H89.3577C88.458 7.06961 87.7285 7.84733 87.7285 8.80554V18.8433V19.1149V29.1526C87.7285 30.1114 88.4574 30.8885 89.3577 30.8885H99.4926C100.548 30.8885 101.248 29.9686 101.248 29.0093C101.248 28.5513 101.088 28.0841 100.731 27.704C100.402 27.3552 99.9573 27.159 99.4926 27.159H91.6248C91.4061 27.159 91.2306 26.9704 91.2306 26.7376V20.8444H96.261C96.7252 20.8444 97.1707 20.6483 97.499 20.2983L97.5001 20.2971C98.6034 19.1224 97.822 17.1137 96.2622 17.1137H91.2306V11.2205C91.2306 10.9878 91.4067 10.7992 91.6248 10.7992Z" fill="white"/>
<path d="M73.9937 1.86477V36.1352C73.9937 37.1648 73.21 38 72.2432 38H72.2427C71.2759 38 70.4922 37.1654 70.4922 36.1352V1.86477C70.4922 0.835171 71.2759 0 72.2427 0H72.2432C73.21 0 73.9937 0.834591 73.9937 1.86477Z" fill="white"/>
<path d="M66.3448 0C67.7653 0 68.595 1.70691 67.774 2.94196C64.5255 7.82995 58.3697 17.094 58.3697 17.094L57.6531 18.1712C56.9551 19.2205 55.4927 19.2205 54.7953 18.1706L54.0799 17.094L44.6762 2.94196C43.8558 1.70691 44.6849 0 46.1054 0H46.1065C46.6745 0 47.2074 0.293674 47.5357 0.78758L56.1639 13.7725C56.1942 13.8183 56.2578 13.8183 56.2881 13.7725L64.9162 0.78758C65.2439 0.293674 65.7769 0 66.3448 0Z" fill="white"/>
<path d="M41.9195 1.86477V36.1352C41.9195 37.1648 41.1358 38 40.169 38H40.1684C39.2017 38 38.418 37.1654 38.418 36.1352V1.86477C38.418 0.835171 39.2017 0 40.1684 0H40.169C41.1358 0 41.9195 0.834591 41.9195 1.86477Z" fill="white"/>
<path d="M67.4542 14.9768V36.1353C67.4542 37.1649 66.6706 38.0001 65.7038 38.0001H65.7032C64.7364 38.0001 63.9527 37.1655 63.9527 36.1353V21.0958C63.9527 21.0169 63.8571 20.9844 63.8145 21.0488L58.3689 29.2438L57.6523 30.321C56.9543 31.3703 55.4919 31.3703 54.7945 30.3204L54.0791 29.2438L48.5967 20.9943C48.5536 20.9298 48.4586 20.9618 48.4586 21.0413V36.1353C48.4586 37.1649 47.6749 38.0001 46.7081 38.0001H46.7075C45.7407 38.0001 44.957 37.1655 44.957 36.1353V14.9217C44.957 13.1034 47.1507 12.3605 48.1367 13.8445L48.4591 14.3297L56.1625 25.9223C56.1928 25.9681 56.2564 25.9681 56.2867 25.9223L63.9521 14.3849L64.2746 13.8997C65.2606 12.4156 67.4542 13.1591 67.4542 14.9768Z" fill="white"/>
<path d="M88.114 60.4242H82.6182C82.5428 60.4242 82.4826 60.355 82.4826 60.2711V49.5141C82.4826 49.4291 82.5439 49.361 82.6182 49.361H88.114C88.2743 49.361 88.4271 49.2896 88.5412 49.1625C88.6638 49.0242 88.7187 48.8529 88.7187 48.6862C88.7187 48.3357 88.4777 48.0011 88.114 48.0011H82.4815H82.4213H81.837C81.5272 48.0011 81.2754 48.2847 81.2754 48.634V61.1524C81.2754 61.5017 81.5272 61.7853 81.837 61.7853H82.4213H82.4815H88.114C88.2743 61.7853 88.4271 61.7138 88.5412 61.5868C88.6638 61.4484 88.7187 61.2771 88.7187 61.1104C88.7187 60.7588 88.4777 60.4242 88.114 60.4242Z" fill="white"/>
<path d="M84.8269 51.9085H87.5372C87.6975 51.9085 87.8503 51.8371 87.9644 51.7101C88.087 51.5717 88.1419 51.4004 88.1419 51.2337C88.1419 50.8832 87.9009 50.5486 87.5372 50.5486H84.0469C83.737 50.5486 83.4863 50.8322 83.4863 51.1815V54.8428V54.9414V58.6027C83.4863 58.952 83.737 59.2356 84.0469 59.2356H87.5372C87.9009 59.2356 88.1419 58.8999 88.1419 58.5505C88.1419 58.3838 88.087 58.2125 87.9644 58.0741C87.8514 57.9471 87.6975 57.8757 87.5372 57.8757H84.8269C84.7516 57.8757 84.6914 57.8065 84.6914 57.7225V55.5732H86.4236C86.5839 55.5732 86.7367 55.5017 86.8497 55.3736C87.2295 54.9448 86.9605 54.2121 86.4236 54.2121H84.6903V52.0628C84.6914 51.9766 84.7516 51.9085 84.8269 51.9085Z" fill="white"/>
<path d="M12.1849 48.676V61.1082C12.1849 61.4813 11.9159 61.7842 11.5856 61.7842C11.2542 61.7842 10.9863 61.4813 10.9863 61.1082V48.676C10.9863 48.3028 11.2553 48 11.5856 48C11.9159 48 12.1849 48.3028 12.1849 48.676Z" fill="white"/>
<path d="M9.56518 48C10.0515 48 10.3355 48.6193 10.0547 49.0673C8.94221 50.8401 6.83339 54.2008 6.83339 54.2008L6.58807 54.5921C6.34922 54.9732 5.84783 54.9732 5.60898 54.5921L5.36366 54.2019L2.14232 49.0684C1.8615 48.6204 2.14555 48.0011 2.63187 48.0011C2.82661 48.0011 3.00845 48.1077 3.12142 48.287L6.07701 52.9974C6.08777 53.0144 6.10928 53.0144 6.12004 52.9974L9.07563 48.287C9.18753 48.1066 9.37043 48 9.56518 48Z" fill="white"/>
<path d="M1.19859 48.676V61.1082C1.19859 61.4813 0.929606 61.7842 0.599295 61.7842C0.267908 61.7842 0 61.4813 0 61.1082V48.676C0 48.3028 0.268984 48 0.599295 48C0.930682 48 1.19859 48.3028 1.19859 48.676Z" fill="white"/>
<path d="M9.94586 53.4329V61.1082C9.94586 61.4814 9.67688 61.7842 9.34657 61.7842C9.01518 61.7842 8.74727 61.4814 8.74727 61.1082V55.6526C8.74727 55.6243 8.71499 55.6118 8.69993 55.6356L6.83534 58.6084L6.59003 58.9997C6.35117 59.3808 5.84979 59.3808 5.61093 58.9997L5.36562 58.6095L3.48812 55.6163C3.47305 55.5925 3.44077 55.605 3.44077 55.6333V61.1082C3.44077 61.4814 3.17179 61.7842 2.84148 61.7842C2.51009 61.7842 2.24219 61.4814 2.24219 61.1082V53.4125C2.24219 52.7535 2.99319 52.4836 3.33103 53.0212L3.44185 53.197L6.08003 57.4027C6.09079 57.4197 6.11231 57.4197 6.12307 57.4027L8.74834 53.2174L8.85917 53.0416C9.19486 52.504 9.94586 52.7728 9.94586 53.4329Z" fill="white"/>
<path d="M20.3391 62.017C20.1314 62.017 19.9765 61.932 19.8496 61.7482C19.7172 61.5577 19.6505 61.2401 19.6505 60.8046V56.8575L17.3814 52.1732C17.1931 51.7739 17.0575 51.4563 16.9811 51.2352C16.9133 51.0401 16.8789 50.8756 16.8789 50.7452C16.8789 50.5422 16.937 50.3698 17.0564 50.2212C17.1759 50.0726 17.3211 50 17.4986 50C17.6816 50 17.8117 50.0601 17.8967 50.1837C18.0183 50.3607 18.2077 50.7293 18.4616 51.2817L20.3757 55.4216L22.3102 51.2839L22.5738 50.7078C22.6394 50.5648 22.7115 50.431 22.7879 50.3085C22.8536 50.2042 22.9256 50.1248 23.001 50.0715C23.0698 50.0238 23.1591 50 23.2678 50C23.4378 50 23.569 50.0681 23.682 50.2132C23.795 50.3607 23.8499 50.524 23.8499 50.7123C23.8499 50.887 23.8176 51.0594 23.752 51.2386C23.6777 51.4427 23.5454 51.7331 23.3603 52.1028L21.0331 56.8564V60.8046C21.0331 61.2333 20.9642 61.5486 20.8287 61.7426C20.6995 61.9297 20.5435 62.017 20.3391 62.017Z" fill="white"/>
<path d="M36.6805 62.0171C36.5235 62.0171 36.3976 61.9717 36.2964 61.8787C36.1792 61.771 36.0759 61.6315 35.9898 61.4636C35.8908 61.2685 35.7531 60.977 35.5809 60.5959L34.8375 58.949C34.5663 58.3343 34.3167 57.8545 34.0983 57.5256C33.8648 57.1751 33.6195 56.929 33.3699 56.7951C33.1246 56.6636 32.818 56.5967 32.4586 56.5967H31.5731V60.8057C31.5731 61.2458 31.5064 61.5645 31.3751 61.7517C31.2482 61.9332 31.0922 62.0171 30.8845 62.0171C30.6596 62.0171 30.5004 61.9309 30.382 61.746C30.254 61.5452 30.1895 61.2288 30.1895 60.8057V51.428C30.1895 50.9755 30.2583 50.6545 30.3939 50.473C30.5262 50.2972 30.7597 50.2087 31.09 50.2087H34.1058C34.5082 50.2087 34.8579 50.2314 35.1441 50.2768C35.4131 50.3199 35.6573 50.4072 35.8693 50.5365C36.1329 50.684 36.3631 50.8927 36.5611 51.1615C36.7591 51.4303 36.913 51.7479 37.0152 52.1051C37.1195 52.4681 37.1733 52.8583 37.1733 53.2655C37.1733 54.0968 36.999 54.7638 36.6547 55.2492C36.305 55.7426 35.7563 56.101 35.0268 56.3131L34.4405 56.4832L34.9634 56.8541C35.2657 57.0685 35.5605 57.3917 35.8413 57.8159C36.1307 58.2549 36.3933 58.7301 36.6214 59.2269C36.8495 59.7248 37.0302 60.1797 37.1561 60.5778C37.3186 61.0893 37.3358 61.2685 37.3358 61.3218C37.3358 61.4284 37.3089 61.535 37.254 61.6473C37.1981 61.7619 37.1238 61.8492 37.0259 61.9173C36.9302 61.9842 36.8161 62.0171 36.6805 62.0171ZM31.5753 55.4125H33.4721C33.9369 55.4125 34.335 55.357 34.6578 55.2481C35.0085 55.1301 35.284 54.9203 35.4755 54.6254C35.6703 54.326 35.7682 53.9222 35.7682 53.4231C35.7682 53.0307 35.6907 52.6779 35.539 52.374C35.3851 52.0677 35.1699 51.8352 34.8988 51.6832C34.6492 51.5437 34.1994 51.4745 33.5227 51.4745H31.5763V55.4125H31.5753Z" fill="white"/>
<path d="M47.8363 62.0171C47.1563 62.0171 46.5408 61.8696 46.0072 61.5804C45.4768 61.2923 45.0292 60.8817 44.6752 60.3588C44.319 59.8326 44.0447 59.1872 43.8618 58.442C43.6756 57.6866 43.582 56.8564 43.582 55.9762C43.582 55.0745 43.6799 54.2375 43.8736 53.4889C44.0641 52.7494 44.3438 52.1119 44.7042 51.5959C45.0614 51.0832 45.5036 50.6862 46.0179 50.414C46.5365 50.1395 47.1358 50.0012 47.7986 50.0012C48.6992 50.0012 49.4803 50.2462 50.1215 50.7282C50.7574 51.2068 51.247 51.8998 51.5751 52.7857C51.9087 53.6874 52.0776 54.7671 52.0776 55.9921C52.0776 56.9006 51.9851 57.7354 51.8011 58.4749C51.6192 59.2042 51.3449 59.8439 50.9844 60.3759C50.6272 60.9033 50.1818 61.3127 49.66 61.5929C49.1338 61.8742 48.5206 62.0171 47.8363 62.0171ZM47.7986 51.3747C47.3951 51.3747 47.0153 51.4779 46.671 51.6809C46.3257 51.8862 46.0244 52.1857 45.7759 52.5747C45.5305 52.9569 45.3358 53.448 45.197 54.0333C45.0604 54.6095 44.9904 55.2628 44.9904 55.9751C44.9904 56.693 45.0593 57.352 45.197 57.9362C45.3369 58.5305 45.5381 59.0341 45.7963 59.4311C46.0567 59.8314 46.3612 60.1377 46.7022 60.3396C47.0433 60.5403 47.421 60.6424 47.8244 60.6424C48.342 60.6424 48.825 60.4677 49.2586 60.1229C49.6944 59.777 50.043 59.2416 50.2969 58.5305C50.5444 57.8363 50.6703 56.9766 50.6703 55.9751C50.6703 55.0484 50.5551 54.2307 50.3281 53.5433C50.0946 52.8378 49.7536 52.2934 49.3146 51.9271C48.8735 51.5607 48.3635 51.3747 47.7986 51.3747Z" fill="white"/>
<path d="M65.1902 62.017C65.0547 62.017 64.9309 61.991 64.8244 61.9411C64.7211 61.8911 64.621 61.8095 64.5285 61.6995C64.4252 61.577 64.3273 61.4295 64.2369 61.2617C64.138 61.0779 64.039 60.8896 63.94 60.6968L60.0279 52.7108V60.8964C60.0279 61.2889 59.9644 61.5804 59.8407 61.763C59.7223 61.9365 59.5814 62.017 59.3963 62.017C59.2037 62.017 59.0617 61.9365 58.9477 61.763C58.825 61.577 58.7637 61.2855 58.7637 60.8964V51.4938C58.7637 51.1308 58.7927 50.8484 58.8487 50.6556C58.9089 50.4673 59.0101 50.3108 59.1553 50.1849C59.2995 50.0601 59.4501 50 59.6147 50C59.7438 50 59.8536 50.0261 59.9397 50.0783C60.0322 50.1338 60.1107 50.2076 60.1807 50.304C60.2592 50.4117 60.3431 50.5558 60.4271 50.7304C60.5207 50.9244 60.6175 51.1251 60.7165 51.3361L64.72 59.4015V51.1195C64.72 50.7191 64.7792 50.4242 64.8965 50.2439C65.0041 50.0771 65.1407 50 65.3279 50C65.5238 50 65.6669 50.0783 65.7755 50.245C65.8939 50.4265 65.9531 50.7202 65.9531 51.1195V60.7059C65.9531 61.8685 65.5453 62.017 65.1902 62.017Z" fill="white"/>
<path d="M97.1399 62.0171C96.9355 62.0171 96.7633 61.966 96.6277 61.864C96.4857 61.7573 96.3749 61.6212 96.2877 61.4454C96.1909 61.2503 96.1038 61.0235 96.0317 60.7728C95.9531 60.504 95.8757 60.2193 95.7971 59.9176L93.6162 52.0144C93.5796 51.8726 93.5398 51.7286 93.5 51.5879C93.4645 51.462 93.4333 51.3237 93.4085 51.1773C93.3849 51.0378 93.373 50.9199 93.373 50.8303C93.373 50.6216 93.4365 50.4333 93.5678 50.2552C93.6926 50.084 93.8465 50.0012 94.0369 50.0012C94.3457 50.0012 94.4544 50.1441 94.5092 50.2518C94.6287 50.4866 94.7545 50.8768 94.8858 51.4144L97.1851 60.4779L99.4886 51.36C99.5952 50.9369 99.6748 50.6409 99.7264 50.4787C99.7673 50.3528 99.834 50.2393 99.9308 50.1339C100.013 50.0454 100.129 50.0023 100.288 50.0023C100.402 50.0023 100.505 50.0397 100.603 50.1157C100.704 50.1951 100.782 50.2972 100.84 50.4288C100.898 50.5603 100.926 50.6874 100.926 50.8155C100.926 50.9153 100.915 51.0276 100.894 51.1479C100.871 51.2783 100.842 51.4053 100.808 51.5312C100.77 51.6685 100.732 51.8102 100.694 51.9554L98.4783 59.9142C98.3987 60.2227 98.3202 60.5086 98.2416 60.7808C98.1685 61.0337 98.0835 61.2583 97.9888 61.4477C97.9038 61.6178 97.7919 61.7539 97.6499 61.864C97.5154 61.9649 97.3432 62.0171 97.1399 62.0171Z" fill="white"/>
<path d="M113.438 62.0171C113.332 62.0171 113.243 61.9932 113.174 61.9479C113.1 61.898 113.041 61.8333 112.99 61.7494C112.949 61.6813 112.882 61.5418 112.791 61.2639C112.71 61.0189 112.641 60.8034 112.583 60.6174L112.093 58.8991H108.037L107.546 60.6594C107.344 61.383 107.212 61.6915 107.139 61.822C107.112 61.8708 107.028 62.0182 106.739 62.0182C106.57 62.0182 106.423 61.9354 106.289 61.7653C106.154 61.594 106.088 61.408 106.088 61.1982C106.088 61.0598 106.105 60.9146 106.141 60.766C106.18 60.5948 106.248 60.3532 106.341 60.0469L108.683 52.1301L108.915 51.3395C109.011 51.0129 109.105 50.7645 109.202 50.5717C109.289 50.3993 109.401 50.2632 109.543 50.1554C109.677 50.0545 109.852 50.0023 110.06 50.0023C110.273 50.0023 110.45 50.0533 110.585 50.1554C110.728 50.2632 110.84 50.3981 110.927 50.566C111.024 50.7531 111.107 50.9562 111.174 51.1728C111.246 51.4065 111.337 51.7184 111.449 52.1097L113.842 59.98C114.062 60.6821 114.108 61.0201 114.108 61.1811C114.108 61.3887 114.042 61.577 113.906 61.7573C113.774 61.932 113.622 62.0171 113.438 62.0171ZM108.365 57.6322H111.756L110.044 51.394L108.365 57.6322Z" fill="white"/>
<path d="M126.997 62.017C126.861 62.017 126.738 61.991 126.631 61.9411C126.528 61.8911 126.428 61.8095 126.335 61.6995C126.232 61.577 126.134 61.4295 126.044 61.2617C125.945 61.0779 125.846 60.8896 125.747 60.6968L121.835 52.7108V60.8964C121.835 61.2889 121.771 61.5804 121.647 61.763C121.529 61.9365 121.388 62.017 121.203 62.017C121.01 62.017 120.868 61.9365 120.754 61.763C120.632 61.577 120.57 61.2855 120.57 60.8964V51.4938C120.57 51.1308 120.599 50.8484 120.655 50.6556C120.716 50.4673 120.817 50.3108 120.962 50.1849C121.106 50.0601 121.257 50 121.421 50C121.55 50 121.66 50.0261 121.746 50.0783C121.839 50.1338 121.917 50.2076 121.987 50.304C122.066 50.4117 122.15 50.5558 122.234 50.7304C122.327 50.9244 122.424 51.1251 122.523 51.3361L126.527 59.4015V51.1195C126.527 50.7191 126.586 50.4242 126.703 50.2439C126.811 50.0771 126.947 50 127.135 50C127.33 50 127.473 50.0783 127.582 50.245C127.701 50.4265 127.76 50.7202 127.76 51.1195V60.7059C127.761 61.8685 127.353 62.017 126.997 62.017Z" fill="white"/>
<path d="M137.951 62.017C137.097 62.017 136.387 61.8027 135.84 61.3796C135.459 61.0802 135.143 60.673 134.904 60.1694C134.667 59.6726 134.547 59.1872 134.547 58.7267C134.547 58.501 134.603 58.3138 134.719 58.155C134.831 58.0019 134.965 57.9305 135.142 57.9305C135.276 57.9305 135.382 57.9826 135.473 58.0961C135.583 58.2299 135.681 58.4431 135.764 58.7278C135.886 59.1361 136.021 59.4821 136.165 59.7599C136.321 60.0594 136.542 60.3089 136.82 60.5017C137.1 60.6945 137.464 60.7921 137.902 60.7921C138.503 60.7921 139.003 60.5981 139.387 60.217C139.788 59.8189 139.991 59.3119 139.991 58.7108C139.991 58.2322 139.877 57.834 139.651 57.5267C139.441 57.2408 139.168 57.0197 138.84 56.8711C138.54 56.735 138.135 56.5898 137.638 56.4378C137.001 56.2393 136.461 56.0045 136.035 55.7403C135.63 55.4896 135.305 55.1448 135.069 54.7149C134.837 54.293 134.72 53.7543 134.72 53.1146C134.72 52.5055 134.846 51.9588 135.093 51.4892C135.341 51.0185 135.708 50.651 136.182 50.3958C136.671 50.1327 137.257 50 137.924 50C138.456 50 138.919 50.0873 139.301 50.2609C139.68 50.4333 139.998 50.6612 140.244 50.9414C140.489 51.2204 140.671 51.5153 140.782 51.8159C140.892 52.1142 140.948 52.4057 140.948 52.6824C140.948 52.9081 140.888 53.1066 140.767 53.2892C140.656 53.4571 140.528 53.5354 140.364 53.5354C140.219 53.5354 140.113 53.4945 140.049 53.4129C139.986 53.3312 139.878 53.1577 139.732 52.7924C139.556 52.307 139.335 51.9123 139.078 51.6276C138.798 51.318 138.378 51.1671 137.797 51.1671C137.268 51.1671 136.83 51.3293 136.495 51.648C136.141 51.9849 135.963 52.4023 135.963 52.8911C135.963 53.1951 136.027 53.465 136.155 53.6919C136.275 53.904 136.438 54.0855 136.642 54.234C136.831 54.3724 137.026 54.4813 137.219 54.5584C137.4 54.6321 137.695 54.7365 138.117 54.8783C138.627 55.0371 139.089 55.2129 139.498 55.4023C139.893 55.5849 140.232 55.8095 140.505 56.0681C140.768 56.3153 140.976 56.634 141.122 57.014C141.27 57.3962 141.345 57.8771 141.345 58.4454C141.345 59.1248 141.212 59.7418 140.951 60.2806C140.69 60.8159 140.303 61.2424 139.797 61.5486C139.288 61.8594 138.666 62.017 137.951 62.017Z" fill="white"/>
</svg>
