<svg width="40" height="41" viewBox="0 0 40 41" fill="none" xmlns="http://www.w3.org/2000/svg">
    <path
        d="M2.5 15.5577C2.5 11.124 2.5 8.90715 3.36286 7.21369C4.12186 5.72408 5.33296 4.51298 6.82257 3.75398C8.51604 2.89111 10.7329 2.89111 15.1666 2.89111H24.8334C29.2671 2.89111 31.484 2.89111 33.1774 3.75398C34.667 4.51298 35.8781 5.72408 36.6371 7.21369C37.5 8.90715 37.5 11.124 37.5 15.5577V25.2245C37.5 29.6582 37.5 31.8751 36.6371 33.5685C35.8781 35.0581 34.667 36.2692 33.1774 37.0282C31.484 37.8911 29.2671 37.8911 24.8334 37.8911H15.1666C10.7329 37.8911 8.51604 37.8911 6.82257 37.0282C5.33296 36.2692 4.12186 35.0581 3.36286 33.5685C2.5 31.8751 2.5 29.6582 2.5 25.2245V15.5577Z"
        fill="#330000" />
    <path
        d="M19.4612 24.8863H14.0376L12.9341 28.4022C12.9035 28.5328 12.7832 28.6253 12.6524 28.6188H9.90528C9.74862 28.6188 9.69385 28.5306 9.74093 28.3539L14.4367 14.4832C14.4837 14.3387 14.5307 14.1742 14.5776 13.9896C14.6391 13.6682 14.6705 13.3417 14.6716 13.0143C14.6581 12.9176 14.7431 12.8321 14.8359 12.8457H18.5691C18.6785 12.8457 18.741 12.8858 18.7569 12.9661L24.0867 28.3781C24.1336 28.5387 24.0867 28.6189 23.9459 28.6188H20.8935C20.7865 28.6311 20.6842 28.5577 20.6587 28.4503L19.4612 24.8863ZM14.8829 21.8521H18.5926C17.9831 19.7693 17.2952 17.7139 16.7377 15.6151C16.1362 17.7176 15.48 19.8116 14.8829 21.8521Z"
        fill="#FF9A00" />
    <path
        d="M27.2548 15.3984C27.0153 15.4082 26.7766 15.3661 26.5539 15.2749C26.3314 15.1836 26.1302 15.0451 25.9634 14.8686C25.7972 14.6844 25.6679 14.4684 25.5833 14.2327C25.4987 13.9972 25.4603 13.7469 25.4703 13.496C25.4618 13.2476 25.5044 13.0002 25.5954 12.7699C25.6866 12.5396 25.8239 12.3316 25.9987 12.1595C26.1717 11.9891 26.3759 11.8556 26.5997 11.7668C26.8233 11.6779 27.0619 11.6354 27.3017 11.6417C27.8653 11.6417 28.3074 11.8143 28.6283 12.1595C28.7903 12.3388 28.9162 12.5492 28.9988 12.7786C29.0813 13.0079 29.1191 13.2517 29.1096 13.496C29.1194 13.7477 29.0798 13.9991 28.9931 14.2349C28.9064 14.4706 28.7743 14.6861 28.6048 14.8686C28.4277 15.0477 28.2162 15.1872 27.9839 15.2785C27.7516 15.3696 27.5033 15.4105 27.2548 15.3984ZM25.6347 28.3781V16.8674C25.6347 16.7229 25.6971 16.6506 25.8226 16.6506H28.7106C28.8356 16.6506 28.8982 16.7229 28.8983 16.8674V28.3781C28.8983 28.5389 28.8357 28.6191 28.7106 28.619H25.8461C25.7052 28.619 25.6347 28.5387 25.6347 28.3781Z"
        fill="#FF9A00" />
</svg>