<svg width="41" height="42" viewBox="0 0 41 42" fill="none" xmlns="http://www.w3.org/2000/svg">
    <path
        d="M11.5578 20.5892C11.5578 21.0941 11.609 21.5041 11.7064 21.8064C11.814 22.1062 11.9524 22.4342 12.142 22.7904C12.2025 22.8845 12.2354 22.9937 12.2368 23.1056C12.2368 23.2414 12.1548 23.3798 11.9806 23.5156L11.1196 24.0896C11.0162 24.1642 10.8933 24.207 10.766 24.2126C10.6276 24.2126 10.4918 24.146 10.356 24.023C10.1718 23.8248 10.007 23.6094 9.86395 23.3798C9.71151 23.1169 9.57045 22.8476 9.44114 22.5726C8.3777 23.8308 7.04264 24.4612 5.43339 24.4612C4.28795 24.4612 3.37314 24.1306 2.70689 23.4746C2.03808 22.8186 1.69727 21.9422 1.69727 20.8481C1.69727 19.6847 2.10727 18.7417 2.93752 18.0293C3.77033 17.3169 4.87477 16.9633 6.27902 16.9633C6.74027 16.9633 7.21945 17.0043 7.72427 17.0709C8.22908 17.1401 8.74927 17.2503 9.29252 17.3733V16.3739C9.29252 15.3336 9.0747 14.6084 8.65189 14.1856C8.21627 13.7602 7.47827 13.5552 6.42764 13.5552C5.95102 13.5552 5.46158 13.6116 4.95677 13.7346C4.45521 13.8539 3.96282 14.0089 3.48333 14.1984C3.32852 14.2685 3.16931 14.3284 3.0067 14.3777C2.93624 14.401 2.86299 14.4148 2.78889 14.4187C2.5967 14.4187 2.50189 14.2804 2.50189 13.9934V13.322C2.50189 13.1042 2.52752 12.9376 2.5967 12.8454C2.69996 12.7196 2.83174 12.6204 2.98108 12.5558C3.45514 12.3098 4.02914 12.1048 4.69795 11.9408C5.3642 11.7614 6.07402 11.682 6.82483 11.682C8.44689 11.682 9.63333 12.051 10.397 12.789C11.1478 13.527 11.5296 14.6494 11.5296 16.1561V20.5892H11.5552H11.5578ZM6.0202 22.6674C6.46864 22.6674 6.93245 22.5854 7.42445 22.4214C7.91389 22.2574 8.35208 21.9551 8.71852 21.5451C8.93825 21.2933 9.09696 20.9943 9.18233 20.6712C9.26433 20.3407 9.3207 19.9461 9.3207 19.4797V18.9057C8.90682 18.8053 8.48762 18.7283 8.06508 18.6751C7.64019 18.6201 7.21226 18.5919 6.78383 18.5905C5.86902 18.5905 5.2002 18.7699 4.75177 19.1389C4.30077 19.5079 4.08552 20.0281 4.08552 20.7122C4.08552 21.3529 4.24695 21.8321 4.58777 22.1626C4.91577 22.5034 5.39239 22.6674 6.0202 22.6674ZM16.9698 24.146C16.7238 24.146 16.5598 24.105 16.4521 24.0076C16.342 23.9256 16.2471 23.736 16.1651 23.4746L12.962 12.8992C12.8988 12.7219 12.8567 12.5379 12.8365 12.3508C12.8365 12.133 12.9466 12.01 13.1645 12.01H14.5021C14.7583 12.01 14.9377 12.051 15.0325 12.1458C15.1427 12.2278 15.2247 12.42 15.3067 12.6788L17.5976 21.7372L19.7245 12.6788C19.7911 12.4072 19.8731 12.2278 19.9807 12.1458C20.1451 12.0451 20.3367 11.9977 20.5291 12.01H21.6181C21.8795 12.01 22.0538 12.051 22.164 12.1458C22.2741 12.2278 22.369 12.42 22.4228 12.6788L24.5778 21.8474L26.9353 12.6788C26.9791 12.4804 27.0735 12.2967 27.2095 12.1458C27.3683 12.0452 27.5549 11.9976 27.7425 12.01H29.011C29.2288 12.01 29.3518 12.1202 29.3518 12.3508C29.3518 12.42 29.3364 12.4892 29.3261 12.5712C29.3041 12.6875 29.2715 12.8016 29.2288 12.912L25.9411 23.4874C25.8591 23.7616 25.7643 23.941 25.6566 24.023C25.5019 24.122 25.3198 24.1695 25.1365 24.1588H23.9654C23.7066 24.1588 23.5298 24.1178 23.4196 24.023C23.3094 23.9256 23.2146 23.7488 23.1608 23.4746L21.0467 14.6519L18.9455 23.4644C18.8788 23.7386 18.7968 23.9154 18.6892 24.0102C18.579 24.1076 18.3868 24.1486 18.1434 24.1486H16.9698V24.146ZM34.4921 24.515C33.7845 24.5159 33.0792 24.4334 32.3909 24.269C31.7093 24.105 31.1788 23.9256 30.8226 23.7206C30.6048 23.5976 30.4562 23.4618 30.3998 23.3362C30.3477 23.2157 30.3207 23.0858 30.3204 22.9544V22.2574C30.3204 21.9704 30.428 21.8321 30.633 21.8321C30.7167 21.8322 30.7998 21.8461 30.879 21.8731C30.961 21.9012 31.084 21.9551 31.2198 22.0114C31.6811 22.2164 32.1885 22.3804 32.7189 22.4906C33.2647 22.5982 33.7951 22.6546 34.341 22.6546C35.202 22.6546 35.8682 22.5034 36.332 22.2036C36.5548 22.0687 36.7379 21.8772 36.8626 21.6485C36.9873 21.4199 37.0491 21.1622 37.0418 20.9019C37.0464 20.7261 37.0162 20.5511 36.9529 20.3871C36.8895 20.223 36.7944 20.0731 36.6728 19.9461C36.4294 19.6847 35.9656 19.4515 35.2968 19.2337L33.3185 18.6187C32.3243 18.3035 31.5863 17.8371 31.1378 17.2221C30.6988 16.6539 30.4593 15.9568 30.4562 15.2387C30.4562 14.6647 30.5792 14.1574 30.8226 13.7192C31.0686 13.2836 31.3966 12.8992 31.8066 12.5968C32.2166 12.2842 32.6779 12.051 33.2237 11.887C33.7695 11.723 34.341 11.6538 34.9406 11.6538C35.243 11.6538 35.5556 11.6666 35.8554 11.7076C36.168 11.7486 36.455 11.805 36.742 11.8614C37.0136 11.928 37.275 11.9946 37.5185 12.0792C37.7645 12.1612 37.9541 12.2432 38.0925 12.3252C38.2534 12.406 38.3936 12.5226 38.5025 12.666C38.5902 12.7994 38.6324 12.9576 38.6229 13.117V13.7602C38.6229 14.0472 38.5153 14.1984 38.3103 14.1984C38.1288 14.1776 37.953 14.122 37.7926 14.0344C36.9686 13.669 36.075 13.4872 35.1738 13.5014C34.3973 13.5014 33.7823 13.6244 33.3595 13.8857C32.9367 14.142 32.7189 14.5417 32.7189 15.1029C32.7189 15.4847 32.8547 15.8127 33.1289 16.0741C33.4005 16.3329 33.9053 16.5917 34.628 16.8249L36.5652 17.4399C37.5466 17.7551 38.2565 18.1933 38.6793 18.7545C39.1021 19.3157 39.3045 19.9589 39.3045 20.6712C39.3045 21.2606 39.1841 21.7911 38.9509 22.2574C38.7095 22.7254 38.3704 23.1361 37.9566 23.4618C37.5338 23.8026 37.029 24.0512 36.4422 24.228C35.8272 24.4202 35.1866 24.515 34.4921 24.515Z"
        fill="white" />
    <path fill-rule="evenodd" clip-rule="evenodd"
        d="M37.0664 31.1621C32.582 34.4856 26.063 36.2512 20.4588 36.2512C12.6048 36.2512 5.52713 33.3376 0.181759 28.4945C-0.241054 28.1101 0.140759 27.5899 0.643009 27.8923C6.42657 31.2569 13.558 33.2966 20.938 33.2966C25.9118 33.2966 31.3802 32.2562 36.4129 30.1217C37.1638 29.7809 37.8044 30.6137 37.0664 31.1621Z"
        fill="#FF9900" />
    <path fill-rule="evenodd" clip-rule="evenodd"
        d="M38.9345 29.0275C38.363 28.2921 35.1445 28.6739 33.6865 28.8507C33.2508 28.9071 33.1816 28.5227 33.5763 28.2357C36.1388 26.4291 40.3541 26.9493 40.8435 27.5515C41.3355 28.1665 40.7077 32.3946 38.3067 34.419C37.9402 34.7342 37.5866 34.5728 37.748 34.1628C38.2938 32.8046 39.5085 29.7553 38.9345 29.0301V29.0275Z"
        fill="#FF9900" />
</svg>