<svg width="40" height="41" viewBox="0 0 40 41" fill="none" xmlns="http://www.w3.org/2000/svg">
    <g clip-path="url(#clip0_375_1890)">
        <path
            d="M11.0209 11.2811L8.43555 8.6958L8.44648 27.3833L8.47742 28.2567C8.49023 28.6677 8.56648 29.1314 8.69367 29.6121L29.1787 36.8355L34.2993 34.5667L34.3012 34.5605L11.0209 11.2811Z"
            fill="#00D2B8" />
        <path
            d="M8.69383 29.6117L8.69508 29.613C8.69383 29.6046 8.68945 29.5952 8.68945 29.5864C8.68945 29.5952 8.6907 29.6033 8.69383 29.6117ZM34.2995 34.5664L29.1788 36.8352L8.69508 29.613C9.08633 31.1142 9.95258 32.8017 10.8848 33.7245L17.5698 40.3714L32.4338 40.3908L34.3013 34.5602L34.2995 34.5664Z"
            fill="#55DDCA" />
        <path
            d="M0.474606 20.7217C-0.187269 21.4283 0.141481 22.8858 1.20711 23.9595L5.80367 28.5942L8.69429 29.6121C8.56711 29.1314 8.49086 28.6677 8.47804 28.2567L8.44711 27.3833L8.43617 8.6958L0.474606 20.7217Z"
            fill="#0081C6" />
        <path
            d="M29.3468 8.93564C28.8662 8.81283 28.4052 8.73689 27.9874 8.72377L27.0643 8.69189L8.43555 8.69439L34.3037 34.5603H34.3059L36.5777 29.4347L29.3468 8.93564Z"
            fill="#0079B3" />
        <path
            d="M29.3242 8.93066C29.3342 8.93285 29.342 8.93566 29.3486 8.9366L29.3477 8.93566C29.342 8.93285 29.3342 8.93285 29.3242 8.93066ZM33.4567 11.1304C32.518 10.1838 30.8527 9.32348 29.3486 8.9366L36.5786 29.4347L34.3067 34.5604H34.3045L39.8564 32.7872L39.8683 17.566L33.4567 11.1304Z"
            fill="#00A4E4" />
        <path
            d="M28.334 6.06253L23.7005 1.46316C22.629 0.401595 21.1709 0.0712826 20.4662 0.731283L8.43555 8.69441L27.0643 8.69191L27.9874 8.72378C28.4052 8.73691 28.8662 8.81285 29.3468 8.93566L28.334 6.06253Z"
            fill="#00D2B8" />
    </g>
    <defs>
        <clipPath id="clip0_375_1890">
            <rect width="40" height="40" fill="white" transform="translate(0 0.391113)" />
        </clipPath>
    </defs>
</svg>