<svg width="40" height="41" viewBox="0 0 40 41" fill="none" xmlns="http://www.w3.org/2000/svg">
    <path fill-rule="evenodd" clip-rule="evenodd"
        d="M20 20.3911C20 17.6297 22.2386 15.3911 25 15.3911C27.7614 15.3911 30 17.6297 30 20.3911C30 23.1525 27.7614 25.3911 25 25.3911C22.2386 25.3911 20 23.1525 20 20.3911Z"
        fill="#1ABCFE" />
    <path fill-rule="evenodd" clip-rule="evenodd"
        d="M10 30.3911C10 27.6297 12.2386 25.3911 15 25.3911H20V30.3911C20 33.1525 17.7614 35.3911 15 35.3911C12.2386 35.3911 10 33.1525 10 30.3911Z"
        fill="#0ACF83" />
    <path fill-rule="evenodd" clip-rule="evenodd"
        d="M20 5.39111V15.3911H25C27.7614 15.3911 30 13.1525 30 10.3911C30 7.62969 27.7614 5.39111 25 5.39111H20Z"
        fill="#FF7262" />
    <path fill-rule="evenodd" clip-rule="evenodd"
        d="M10 10.3911C10 13.1525 12.2386 15.3911 15 15.3911H20V5.39111H15C12.2386 5.39111 10 7.62969 10 10.3911Z"
        fill="#F24E1E" />
    <path fill-rule="evenodd" clip-rule="evenodd"
        d="M10 20.3911C10 23.1525 12.2386 25.3911 15 25.3911H20V15.3911H15C12.2386 15.3911 10 17.6297 10 20.3911Z"
        fill="#A259FF" />
</svg>