<svg width="40" height="41" viewBox="0 0 40 41" fill="none" xmlns="http://www.w3.org/2000/svg">
    <path
        d="M7.25 31.1409L7.4625 30.8447L17.4875 11.8272L17.5087 11.6259L13.09 3.32592C13.0091 3.17414 12.8825 3.05164 12.7282 2.97575C12.5738 2.89986 12.3995 2.87442 12.23 2.90303C12.0604 2.93164 11.9041 3.01285 11.7832 3.13518C11.6623 3.2575 11.5829 3.41475 11.5562 3.58467L7.25 31.1409Z"
        fill="#FFC24A" />
    <path
        d="M7.375 30.9163L7.535 30.6038L17.4563 11.7838L13.0487 3.45134C12.9761 3.30643 12.8584 3.18898 12.7133 3.11657C12.5683 3.04416 12.4037 3.0207 12.2442 3.0497C12.0847 3.0787 11.9389 3.1586 11.8286 3.27743C11.7183 3.39626 11.6495 3.54762 11.6325 3.70884L7.375 30.9163Z"
        fill="#FFA712" />
    <path
        d="M20.7303 17.9034L24.0203 14.5284L20.7291 8.25213C20.6566 8.11706 20.5489 8.00416 20.4174 7.92545C20.2859 7.84674 20.1355 7.80518 19.9822 7.80518C19.8289 7.80518 19.6785 7.84674 19.547 7.92545C19.4155 8.00416 19.3078 8.11706 19.2353 8.25213L17.4766 11.6046V11.8909L20.7303 17.9034Z"
        fill="#F4BD62" />
    <path
        d="M20.6703 17.7661L23.8691 14.4911L20.6703 8.39114C20.618 8.2591 20.5285 8.14503 20.4128 8.06267C20.2971 7.98031 20.16 7.93318 20.0181 7.92697C19.8762 7.92076 19.7355 7.95573 19.613 8.02767C19.4906 8.0996 19.3915 8.20543 19.3278 8.33239L17.5603 11.7436L17.5078 11.9174L20.6703 17.7661Z"
        fill="#FFA50E" />
    <path
        d="M7.25195 31.1422L7.3482 31.0447L7.69695 30.9034L20.522 18.1259L20.6845 17.6834L17.4857 11.5859L7.25195 31.1422Z"
        fill="#F6820C" />
    <path
        d="M21.14 37.586L32.75 31.1123L29.4325 10.6985C29.4087 10.5546 29.3457 10.42 29.2505 10.3096C29.1552 10.1991 29.0314 10.117 28.8926 10.0724C28.7537 10.0277 28.6052 10.0221 28.4634 10.0563C28.3216 10.0904 28.192 10.163 28.0888 10.266L7.25 31.141L18.7913 37.5848C19.1501 37.785 19.5541 37.8901 19.965 37.8901C20.3759 37.8901 20.7799 37.785 21.1387 37.5848"
        fill="#FDE068" />
    <path
        d="M32.6437 31.0587L29.3538 10.7987C29.3479 10.6611 29.3014 10.5283 29.2201 10.4171C29.1388 10.3059 29.0263 10.2213 28.8969 10.1741C28.7675 10.1268 28.6269 10.119 28.4931 10.1517C28.3593 10.1843 28.2381 10.2559 28.145 10.3575L7.375 31.1025L18.7888 37.4775C19.1447 37.6761 19.5455 37.7803 19.9531 37.7803C20.3607 37.7803 20.7615 37.6761 21.1175 37.4775L32.6437 31.0587Z"
        fill="#FCCA3F" />
    <path
        d="M21.14 37.3912C20.7812 37.5915 20.3771 37.6966 19.9662 37.6966C19.5554 37.6966 19.1513 37.5915 18.7925 37.3912L7.345 31.0437L7.25 31.1413L18.7913 37.585C19.1501 37.7852 19.5541 37.8903 19.965 37.8903C20.3759 37.8903 20.7799 37.7852 21.1387 37.585L32.75 31.1125L32.7212 30.9375L21.14 37.3912Z"
        fill="#EEAB37" />
</svg>