<svg width="40" height="41" viewBox="0 0 40 41" fill="none" xmlns="http://www.w3.org/2000/svg">
    <path
        d="M25.783 13.8312L30.5005 10.0812L29.6705 9.04621C27.7872 7.40428 25.5198 6.26453 23.0785 5.73265C20.6372 5.20078 18.1011 5.29402 15.7055 6.00371C13.3191 6.72458 11.1548 8.03951 9.41536 9.82528C7.67594 11.611 6.41837 13.8092 5.76049 16.2137C5.68549 16.4962 6.54049 15.9687 6.91799 16.0737L13.438 15.0037C13.438 15.0037 13.7555 14.6937 13.9405 14.4912C16.8405 11.3262 21.7555 10.9112 25.103 13.6062L25.783 13.8312Z"
        fill="#EA4335" />
    <path
        d="M34.0916 16.1409C33.3406 13.3948 31.8024 10.9284 29.6666 9.0459L25.0916 13.5959C26.0429 14.3677 26.8059 15.346 27.3227 16.4567C27.8395 17.5673 28.0965 18.7811 28.0741 20.0059V20.8134C30.3241 20.8134 32.1491 22.6259 32.1491 24.8634C32.1491 27.0959 30.3241 28.9109 28.0741 28.9109L19.9316 28.9034L19.1191 28.9909V35.2584L19.9316 35.3909H28.0741C30.3435 35.4132 32.56 34.7054 34.3965 33.3721C36.233 32.0388 37.5924 30.1506 38.2741 27.9859C38.9472 25.8243 38.9033 23.503 38.1491 21.3683C37.3949 19.2336 35.9707 17.4 34.0891 16.1409H34.0916Z"
        fill="#4285F4" />
    <path
        d="M11.7778 35.3885H19.9253V28.9035H11.7753C11.1953 28.9035 10.6228 28.7385 10.0953 28.501L8.95031 28.851L5.66781 32.0935L5.38281 33.211C7.2208 34.6111 9.46479 35.3746 11.7753 35.386L11.7778 35.3885Z"
        fill="#34A853" />
    <path
        d="M11.777 14.3209C9.57511 14.3301 7.43089 15.0257 5.64295 16.3108C3.85502 17.596 2.51237 19.4068 1.802 21.4909C1.09912 23.5738 1.0667 25.8246 1.7093 27.9268C2.3519 30.029 3.6372 31.877 5.3845 33.2109L10.1095 28.5009C9.30666 28.1429 8.64239 27.533 8.21733 26.7636C7.79228 25.9942 7.6296 25.1071 7.75396 24.237C7.87831 23.3668 8.28291 22.5608 8.90647 21.9412C9.53002 21.3217 10.3385 20.9222 11.2095 20.8034C12.0806 20.6785 12.9688 20.8389 13.7412 21.2607C14.5136 21.6825 15.1287 22.343 15.4945 23.1434L20.2195 18.4484C19.224 17.1573 17.9442 16.1133 16.4795 15.3974C15.0148 14.6815 13.4073 14.3132 11.777 14.3209Z"
        fill="#FBBC05" />
</svg>