<svg width="40" height="41" viewBox="0 0 40 41" fill="none" xmlns="http://www.w3.org/2000/svg">
    <g clip-path="url(#clip0_375_1907)">
        <path
            d="M34.1342 8.23242L31.559 37.0812L19.9834 40.2903L8.43966 37.0857L5.86719 8.23242H34.1342Z"
            fill="#E44D26" />
        <path d="M20 37.8371L29.3537 35.2439L31.5543 10.5913H20V37.8371Z" fill="#F16529" />
        <path
            d="M14.9943 17.6691H20.0004V14.1304H11.127L11.2117 15.0798L12.0814 24.8315H20.0004V21.2929H15.3177L14.9943 17.6691Z"
            fill="#EBEBEB" />
        <path
            d="M15.7926 26.6006H12.2402L12.736 32.1569L19.9848 34.1692L20.0011 34.1647V30.4829L19.9856 30.4871L16.0445 29.4229L15.7926 26.6006Z"
            fill="#EBEBEB" />
        <path
            d="M8.49805 0.391113H10.2964V2.16786H11.9414V0.391113H13.7398V5.77155H11.9415V3.96986H10.2965V5.77155H8.49812L8.49805 0.391113Z"
            fill="white" />
        <path
            d="M16.1047 2.17534H14.5215V0.391113H19.487V2.17534H17.9032V5.77155H16.1047L16.1047 2.17534Z"
            fill="white" />
        <path
            d="M20.2734 0.391113H22.1486L23.3021 2.28164L24.4544 0.391113H26.3303V5.77155H24.5394V3.10471L23.3021 5.01775H23.2712L22.033 3.10471V5.77155H20.2734V0.391113Z"
            fill="white" />
        <path d="M27.2266 0.391113H29.0254V3.99308H31.5544V5.77155H27.2266V0.391113Z" fill="white" />
        <path
            d="M19.9883 24.8312H24.3458L23.9351 29.4206L19.9883 30.4859V34.1675L27.2429 32.1569L27.2961 31.5591L28.1277 22.2427L28.214 21.2925H19.9883V24.8312Z"
            fill="white" />
        <path
            d="M19.9883 17.6605V17.6691H28.536L28.607 16.8737L28.7682 15.0798L28.8529 14.1304H19.9883V17.6605Z"
            fill="white" />
    </g>
    <defs>
        <clipPath id="clip0_375_1907">
            <rect width="40" height="40" fill="white" transform="translate(0 0.391113)" />
        </clipPath>
    </defs>
</svg>