<svg width="40" height="41" viewBox="0 0 40 41" fill="none" xmlns="http://www.w3.org/2000/svg">
    <g clip-path="url(#clip0_375_1960)">
        <path
            d="M34 0.391113H6C2.68629 0.391113 0 3.0774 0 6.39111V34.3911C0 37.7048 2.68629 40.3911 6 40.3911H34C37.3137 40.3911 40 37.7048 40 34.3911V6.39111C40 3.0774 37.3137 0.391113 34 0.391113Z"
            fill="#F7DF1E" />
        <path
            d="M25.3125 29.2974C26.0938 30.6255 27.1875 31.563 28.9844 31.563C30.5469 31.563 31.5625 30.7817 31.5625 29.688C31.5625 28.438 30.5469 27.9692 28.8281 27.188L27.8906 26.7974C25.1562 25.6255 23.3594 24.2192 23.3594 21.1724C23.3594 18.3599 25.4688 16.1724 28.8281 16.1724C31.25 16.1724 32.9688 17.0317 34.1406 19.2192L31.25 21.0942C30.625 19.9224 29.9219 19.4536 28.8281 19.4536C27.7344 19.4536 27.0312 20.1567 27.0312 21.0942C27.0312 22.188 27.7344 22.6567 29.375 23.3599L30.3125 23.7505C33.5156 25.1567 35.3125 26.4849 35.3125 29.688C35.3125 33.0474 32.6562 34.9224 29.0625 34.9224C25.5469 34.9224 23.2812 33.2817 22.1875 31.0942L25.3125 29.2974ZM12.0312 29.6099C12.6562 30.6255 13.125 31.563 14.4531 31.563C15.7031 31.563 16.4844 31.0942 16.4844 29.2192V16.2505H20.2344V29.063C20.2344 32.9692 17.9688 34.688 14.6094 34.688C11.5625 34.688 9.84375 33.1255 8.98438 31.2505L12.0312 29.6099Z"
            fill="black" />
    </g>
    <defs>
        <clipPath id="clip0_375_1960">
            <rect width="40" height="40" fill="white" transform="translate(0 0.391113)" />
        </clipPath>
    </defs>
</svg>