<svg width="40" height="41" viewBox="0 0 40 41" fill="none" xmlns="http://www.w3.org/2000/svg">
    <g clip-path="url(#clip0_375_1923)">
        <path
            d="M11.8247 2.13243C21.9051 -2.38309 33.7377 2.12827 38.2532 12.2087C42.7688 22.2891 38.2574 34.1217 28.177 38.6372C18.0966 43.1528 6.26395 38.6414 1.74843 28.561C-2.76708 18.4806 1.74427 6.64794 11.8247 2.13243Z"
            fill="url(#paint0_radial_375_1923)" />
        <path
            d="M35.625 32.8848C25.625 41.6348 15 42.2598 4.375 32.8848C6.23801 35.231 8.61041 37.1266 11.3146 38.4297C14.0188 39.7329 16.9848 40.4098 19.9906 40.4098C22.9963 40.4098 25.964 39.7329 28.6715 38.4297C31.379 37.1266 33.7561 35.231 35.625 32.8848Z"
            fill="black" fill-opacity="0.125" />
        <path
            d="M35.625 7.89707C25.625 -0.852931 15 -1.47793 4.375 7.89707C6.23801 5.55085 8.61041 3.65524 11.3146 2.3521C14.0188 1.04897 16.9848 0.37207 19.9906 0.37207C22.9963 0.37207 25.964 1.04897 28.6715 2.3521C31.379 3.65524 33.7561 5.55085 35.625 7.89707Z"
            fill="#F4F4F4" fill-opacity="0.153" />
        <path
            d="M20.8055 11.1052C17.3292 9.45074 12.6138 8.70037 6.65935 8.85407L2.71268 8.89518C2.61976 8.93029 2.54478 8.97522 2.49348 9.02653C2.44218 9.07783 2.41592 9.13415 2.41673 9.19117C2.41753 9.24818 2.44538 9.30437 2.49812 9.35543C2.55087 9.4065 2.62711 9.45107 2.72101 9.48574L7.3649 9.82074C12.1182 10.2363 15.6753 10.8774 18.036 11.7441C10.4516 12.0141 4.59638 12.67 0.470458 13.7118C0.278236 13.7591 -0.035653 14.5602 1.33324 14.3163C7.85361 13.4556 13.2999 13.1013 17.6721 13.2535C11.9399 14.4572 7.26342 16.2811 3.64268 18.7252C3.11435 19.2157 3.52657 19.7985 4.44212 19.2157C10.3021 16.2361 15.5245 14.6848 20.1093 14.5618L20.856 16.2146C16.2788 18.9468 17.7777 26.3724 24.156 26.3724C31.886 26.198 34.2088 31.8691 34.9982 36.0891C35.1549 36.778 36.1305 36.5441 35.7388 35.288C35.4684 32.2543 34.1045 29.6089 31.6471 27.3518C34.2405 28.2989 35.913 29.9143 36.6649 32.198C37.041 32.6063 37.4427 32.2796 37.3655 31.9796C36.6649 29.1196 35.1549 26.9774 31.2449 25.7185C29.5588 24.9952 26.9532 24.7046 23.5382 24.4846C18.5055 24.3241 18.646 16.4218 24.6955 17.268C25.5582 17.1541 28.8555 18.6518 30.0116 19.2685C30.1921 20.458 30.2355 20.2452 31.8471 20.9696C32.469 21.3756 32.9249 21.7883 33.2149 22.208C33.5886 21.708 34.0897 21.3781 34.7182 21.2185C33.6649 21.0296 32.3193 20.0218 33.0805 19.9374C32.756 19.8263 32.4632 18.9824 32.0816 18.3185C31.9616 17.9635 31.1471 18.0952 30.4899 17.9618C28.4966 16.8202 25.6927 15.3541 23.4549 15.3263C19.8432 14.9102 21.141 11.8274 20.8055 11.1052Z"
            fill="#050005" fill-opacity="0.522" />
        <path
            d="M30.3502 17.6451L31.7852 17.8579C31.8219 17.3073 28.4196 14.6312 25.4341 13.7234C24.6008 13.2995 24.0691 14.0406 25.1052 14.4029C27.4135 15.3734 29.6791 16.8156 30.3502 17.6451Z"
            fill="#050005" fill-opacity="0.522" />
        <path
            d="M20.8116 10.2546C17.3353 8.60015 12.62 7.84978 6.66552 8.00349L2.7183 8.0446C2.62542 8.07972 2.55048 8.12467 2.49922 8.17599C2.44797 8.22731 2.42177 8.28363 2.42262 8.34065C2.42348 8.39766 2.45138 8.45385 2.50417 8.5049C2.55697 8.55595 2.63326 8.6005 2.72719 8.63515L7.37108 8.97015C12.1244 9.38571 15.6813 10.0268 18.0416 10.8935C10.4576 11.1635 4.60237 11.8194 0.476078 12.8613C0.284411 12.9085 -0.0300334 13.7096 1.33886 13.4657C7.8596 12.605 13.3059 12.2507 17.6777 12.4029C11.9459 13.6066 7.2696 15.4305 3.64886 17.8746C3.12052 18.3652 3.53219 18.9479 4.4483 18.3652C10.3083 15.3855 15.5305 13.8342 20.115 13.7113L20.8622 15.364C16.285 18.0963 17.7833 25.5218 24.1616 25.5218C31.8922 25.3474 34.2144 31.0185 35.0044 35.2385C35.1605 35.9274 36.1361 35.6935 35.745 34.4374C35.4746 31.4037 34.1107 28.7581 31.6533 26.5007C34.2466 27.4481 35.9192 29.0637 36.6711 31.3474C37.0472 31.7557 37.4489 31.429 37.3716 31.129C36.6711 28.269 35.1605 26.1268 31.2511 24.8679C29.5644 24.1446 26.9594 23.854 23.5444 23.634C18.5116 23.4735 18.6522 15.5713 24.7016 16.4174C25.5644 16.3035 28.8616 17.8013 30.0177 18.4179C30.1983 19.6074 30.2411 19.3946 31.8533 20.119C32.4752 20.525 32.9311 20.9377 33.2211 21.3574C33.5948 20.8574 34.0959 20.5276 34.7244 20.3679C33.6711 20.179 32.3255 19.1713 33.0861 19.0868C32.7616 18.9757 32.4689 18.1318 32.0872 17.4679C31.9677 17.1129 31.1533 17.2446 30.4955 17.1113C28.5027 15.9696 25.6989 14.5035 23.4611 14.4757C19.8494 14.0596 21.1466 10.9768 20.8116 10.2546Z"
            fill="white" />
        <path
            d="M30.3557 16.7945L31.7912 17.0073C31.8273 16.4567 28.4257 13.7806 25.4396 12.8728C24.6068 12.4489 24.0751 13.1901 25.1107 13.5523C27.419 14.5228 29.6846 15.9651 30.3557 16.7945Z"
            fill="white" />
    </g>
    <defs>
        <radialGradient id="paint0_radial_375_1923" cx="0" cy="0" r="1"
            gradientUnits="userSpaceOnUse"
            gradientTransform="translate(2724.66 1056.78) rotate(-24.13) scale(1966.4)">
            <stop stop-color="#4CB4FF" />
            <stop offset="1" stop-color="#0068FB" />
        </radialGradient>
        <clipPath id="clip0_375_1923">
            <rect width="40" height="40" fill="white" transform="translate(0 0.391113)" />
        </clipPath>
    </defs>
</svg>