<svg width="40" height="41" viewBox="0 0 40 41" fill="none" xmlns="http://www.w3.org/2000/svg">
    <path
        d="M37.5 20.3911C37.5 30.0511 29.6688 37.8911 20 37.8911C10.3312 37.8911 2.5 30.0511 2.5 20.3911C2.5 10.7224 10.3312 2.89111 20 2.89111C29.6688 2.89111 37.5 10.7224 37.5 20.3911Z"
        fill="white" />
    <path
        d="M14.1329 27.7786C13.9762 27.5451 13.8392 27.2302 13.728 26.8535C11.7196 24.5886 13.2711 21.2556 14.8057 18.9924C14.9529 18.7504 15.1131 18.5166 15.2874 18.293C16.4582 16.8382 16.7611 15.8259 16.8512 14.4562C16.862 14.2012 16.8409 13.8637 16.8166 13.4759C16.6927 11.4957 16.4869 8.2058 20.0199 7.91412C24.4361 7.54948 24.0764 11.6049 24.0437 13.9826C24.0424 14.081 24.041 14.1767 24.0401 14.2691C24.0281 15.7024 24.7761 16.6837 25.5569 17.708C25.842 18.0821 26.1315 18.4619 26.39 18.8715C26.3976 18.8836 26.4052 18.8959 26.4129 18.908C27.7772 20.8757 29.1242 23.8124 27.2494 26.5977C26.9859 27.5485 26.5869 28.4211 26.0542 29.1312C24.142 31.6476 22.4424 31.3921 21.115 31.1926C20.7146 31.1325 20.3481 31.0774 20.0199 31.105C19.4746 31.1382 19.0376 31.2264 18.6601 31.3026C17.201 31.5971 16.6307 31.7122 14.1329 27.7786Z"
        fill="black" />
    <path
        d="M22.5183 10.1343C22.4773 11.2998 21.2411 12.3121 19.7591 12.4057C18.2771 12.4993 17.1143 11.6145 17.1553 10.449C17.1962 9.28353 18.4326 8.27117 19.9146 8.17758C21.3966 8.09252 22.5592 8.96877 22.5183 10.1343Z"
        fill="url(#paint0_linear_375_1966)" />
    <path fill-rule="evenodd" clip-rule="evenodd"
        d="M19.8329 12.9675C19.8448 13.6012 20.1351 14.1416 20.5427 14.3857C19.2128 14.2666 17.5649 14.7527 17.5649 15.6729C17.5444 17.2292 16.6782 19.1657 16.0546 20.5596C15.9318 20.8342 15.8184 21.0877 15.7227 21.3131C15.3367 22.269 15.1051 23.2914 15.0777 24.294C14.0553 22.8847 14.7982 21.0769 15.1987 20.2922C15.7317 19.2597 15.7214 19.1309 15.5144 19.3729C14.7208 20.7224 13.2263 23.433 15.0978 25.0614C15.1572 25.7885 15.3343 26.493 15.6491 27.1406C18.1544 32.194 22.8461 30.1182 24.3936 27.498C24.5994 27.1254 24.7659 26.765 24.8981 26.4167C24.9756 26.4655 25.0586 26.5032 25.1468 26.5281C25.9247 26.7579 27.0873 25.8816 27.3657 25.3371C27.7014 24.614 27.3576 24.1205 26.2113 23.5335C26.1528 23.5046 26.0951 23.4774 26.0381 23.452C26.4777 21.6009 25.2662 19.6759 24.4009 18.8592C24.2396 18.8194 24.2168 18.9109 24.4673 19.1607C25.0122 19.683 26.1974 21.5449 25.5562 23.2777C25.4506 23.2494 25.3489 23.2294 25.2521 23.2184C25.0551 22.0361 24.5298 21.1164 24.1627 20.4736C24.0796 20.328 24.0046 20.1966 23.9432 20.0796C23.8197 19.8435 23.6719 19.599 23.5152 19.3397C22.9113 18.3406 22.1747 17.1217 22.1747 15.3155C22.0823 14.9181 21.7073 14.6531 21.2082 14.5067C21.7876 14.3899 22.2224 13.713 22.2074 12.8995C22.1911 12.0232 21.6424 11.3256 20.9874 11.3426C20.3324 11.3596 19.8084 12.0912 19.8329 12.9675ZM20.3733 13.1631C20.3652 13.6481 20.5944 14.0394 20.8974 14.0394C21.1922 14.0394 21.4459 13.6481 21.4542 13.1716C21.4623 12.6867 21.2331 12.2954 20.9302 12.2954C20.6272 12.2954 20.3816 12.6867 20.3733 13.1631Z"
        fill="url(#paint1_linear_375_1966)" />
    <path fill-rule="evenodd" clip-rule="evenodd"
        d="M18.1945 14.3285C18.6694 14.303 19.0133 13.665 18.9724 12.9079C18.9314 12.1507 18.5139 11.5637 18.0389 11.5892C17.564 11.6147 17.2201 12.2528 17.2611 13.0099C17.302 13.767 17.7196 14.354 18.1945 14.3285ZM18.481 13.1715C18.522 13.5714 18.3746 13.9116 18.1618 13.9457C17.9489 13.9712 17.7441 13.6735 17.7033 13.2736C17.6623 12.8738 17.8096 12.5335 18.0225 12.4995C18.2354 12.4739 18.4401 12.7717 18.481 13.1715Z"
        fill="url(#paint2_linear_375_1966)" />
    <path
        d="M20.4953 12.8905C20.4707 13.1627 20.5936 13.384 20.7655 13.401C20.9375 13.418 21.1012 13.2052 21.1257 12.9416C21.1503 12.6693 21.0275 12.4481 20.8556 12.4311C20.6836 12.4141 20.5198 12.6268 20.4953 12.8905Z"
        fill="url(#paint3_linear_375_1966)" />
    <path
        d="M18.3013 12.9591C18.3258 13.1804 18.2358 13.376 18.1048 13.393C17.9738 13.41 17.8509 13.2399 17.8263 13.0102C17.8018 12.789 17.8918 12.5933 18.0229 12.5763C18.1539 12.5593 18.2767 12.738 18.3013 12.9591Z"
        fill="url(#paint4_linear_375_1966)" />
    <path
        d="M23.336 21.8316C23.336 23.3288 21.9522 25.2686 19.5778 25.2516C17.1296 25.2686 16.0898 23.3288 16.0898 21.8316C16.0898 20.3343 17.711 19.1177 19.7088 19.1177C21.7148 19.1263 23.336 20.3343 23.336 21.8316Z"
        fill="url(#paint5_linear_375_1966)" />
    <path
        d="M22.044 17.1275C22.0195 18.6759 21.0451 19.0417 19.8168 19.0417C18.5887 19.0417 17.6962 18.8119 17.5898 17.1275C17.5898 16.0727 18.5887 15.46 19.8168 15.46C21.0451 15.4515 22.044 16.0642 22.044 17.1275Z"
        fill="url(#paint6_linear_375_1966)" />
    <path
        d="M14.6168 19.5095C15.4193 18.242 17.114 16.2938 14.9361 19.7818C13.1675 22.6573 14.2811 24.5034 14.8543 25.0138C16.5081 26.5451 16.4426 27.5745 15.1408 26.7663C12.3488 25.0393 12.9301 22.1298 14.6168 19.5095Z"
        fill="url(#paint7_linear_375_1966)" />
    <path
        d="M26.2341 20.0285C25.5383 18.5397 23.3275 14.7625 26.3406 19.1522C29.0835 23.1251 27.1594 25.89 26.8155 26.1622C26.4716 26.4345 25.3171 26.9873 25.6529 26.0261C25.9968 25.0647 27.6998 23.2442 26.2341 20.0285Z"
        fill="url(#paint8_linear_375_1966)" />
    <path
        d="M14.0114 31.7689C12.1773 30.7565 9.51628 31.9645 10.4824 29.2251C10.6789 28.6041 10.1959 27.6684 10.507 27.0643C10.8754 26.3241 11.6697 26.4858 12.1445 25.9924C12.6112 25.482 12.906 24.5973 13.7821 24.7333C14.65 24.8694 15.2314 25.9754 15.8372 27.3365C16.2876 28.3064 17.876 29.676 17.7695 30.765C17.6385 32.4324 15.8126 32.7471 14.0114 31.7689Z"
        fill="url(#paint9_linear_375_1966)" />
    <path fill-rule="evenodd" clip-rule="evenodd"
        d="M12.3458 26.1916C11.8998 26.6795 11.0806 26.5625 10.7519 27.2008C10.5408 27.6106 10.7714 28.2406 10.8026 28.6895C10.841 29.2441 10.3813 30.0299 10.6154 30.5035C10.8783 31.0354 12.0662 30.9664 12.5884 31.0428C13.8774 31.231 16.0079 32.8993 17.1735 31.5679C18.313 30.2664 16.1227 28.6193 15.5855 27.4623C15.2361 26.6773 14.7132 25.1724 13.74 25.0195C13.0539 24.913 12.7414 25.759 12.3458 26.1916ZM13.8229 24.4469C15.0347 24.637 15.6411 26.208 16.0884 27.2126C16.7672 28.6695 19.0934 30.2355 17.5857 31.9575C16.2165 33.5215 14.0547 31.8416 12.5107 31.6161C11.7396 31.5034 10.5232 31.5844 10.1197 30.768C9.77276 30.0663 10.2952 29.4306 10.2467 28.7311C10.2054 28.1351 9.96956 27.4951 10.2596 26.9294C10.6567 26.1343 11.4233 26.3268 11.9443 25.7901C12.4976 25.1821 12.8292 24.2925 13.8229 24.4469Z"
        fill="#E68C3F" />
    <path
        d="M26.7263 31.3006C28.069 29.6078 31.0575 29.9565 29.0434 27.634C28.6176 27.1321 28.7486 26.0601 28.2246 25.6008C27.6105 25.0393 26.9309 25.4986 26.3086 25.2094C25.6864 24.8946 25.0314 24.2906 24.2699 24.716C23.5084 25.1499 23.4265 26.2729 23.3529 27.7531C23.2874 28.8165 22.354 30.5945 22.8534 31.5729C23.574 33.0871 25.449 32.883 26.7263 31.3006Z"
        fill="url(#paint10_linear_375_1966)" />
    <path fill-rule="evenodd" clip-rule="evenodd"
        d="M27.2627 25.0138C27.6069 25.0046 28.0193 25.0288 28.4065 25.3816C28.8882 25.8063 28.8929 26.4994 29.0745 27.0798C29.2895 27.767 30.0432 28.1596 29.998 28.9656C29.9244 30.283 27.6428 30.6004 26.9405 31.4859C26.2657 32.3219 25.4127 32.8196 24.6032 32.8868C23.3755 32.9885 22.3615 31.9563 22.4333 30.6959C22.4915 29.6755 23.0113 28.7486 23.0747 27.7365C23.1112 27.0035 23.1505 26.324 23.283 25.7723C23.4169 25.2146 23.6582 24.7345 24.1359 24.4623C25.1822 23.8778 26.1929 25.0418 27.2627 25.0138ZM24.4029 24.9706C24.1197 25.1324 23.9395 25.4305 23.8238 25.9124C23.7067 26.4001 23.6682 27.0251 23.6309 27.7718C23.5684 28.7863 23.0477 29.7125 22.9897 30.7301C22.9379 31.6375 23.6349 32.3861 24.5589 32.3095C25.186 32.2575 25.9095 31.8615 26.5119 31.1156C27.0502 30.4376 29.3927 29.808 29.4417 28.932C29.4737 28.36 28.7212 27.8234 28.5444 27.2589C28.4062 26.817 28.3989 26.1325 28.0449 25.8221C27.8187 25.6154 27.5807 25.5846 27.2767 25.5926C26.3958 25.6156 25.2207 24.515 24.4029 24.9706Z"
        fill="#E68C3F" />
    <path
        d="M26.145 29.0377C28.2246 25.8475 26.6771 25.873 26.1531 25.6262C25.6291 25.3711 25.0806 24.8691 24.4665 25.218C23.8523 25.5752 23.8196 26.494 23.8032 27.7021C23.7787 28.5699 23.0827 30.0246 23.5003 30.8327C24.008 31.7771 25.2361 30.4074 26.145 29.0377Z"
        fill="url(#paint11_linear_375_1966)" />
    <path
        d="M13.5857 29.4968C10.4743 27.404 11.9318 26.6894 12.3985 26.3575C12.9635 25.9322 12.9716 25.1155 13.6676 25.192C14.3635 25.2687 14.7729 26.1619 15.2396 27.2679C15.5835 28.059 16.779 29.1139 16.6889 30.0242C16.5742 31.0962 14.9285 30.39 13.5857 29.4968Z"
        fill="url(#paint12_linear_375_1966)" />
    <path
        d="M27.1844 25.3112C26.9388 25.7536 25.9399 26.4511 25.2766 26.264C24.5971 26.0854 24.286 25.09 24.4251 24.3414C24.548 23.4906 25.2766 23.4481 26.1938 23.8735C27.168 24.3329 27.471 24.7242 27.1844 25.3112Z"
        fill="black" />
    <path
        d="M26.514 25.065C26.3584 25.3712 25.7034 25.8561 25.2449 25.7285C24.7864 25.6008 24.5571 24.9118 24.6307 24.3928C24.6962 23.8058 25.1875 23.7718 25.8099 24.0611C26.4812 24.3843 26.6941 24.6566 26.514 25.065Z"
        fill="url(#paint13_linear_375_1966)" />
    <path
        d="M18.0477 13.9631C18.3752 13.6482 19.1695 12.687 20.676 13.6909C20.9543 13.878 21.1836 13.895 21.7158 14.1332C22.7885 14.5926 22.2807 15.6985 21.1345 16.0729C20.6432 16.2345 20.2011 16.8555 19.3168 16.796C18.5553 16.7535 18.3588 16.2345 17.8921 15.9537C17.0652 15.4689 16.9423 14.8137 17.3927 14.465C17.843 14.1162 18.015 13.9886 18.0477 13.9631Z"
        fill="url(#paint14_linear_375_1966)" />
    <path fill-rule="evenodd" clip-rule="evenodd"
        d="M17.4911 14.6041C17.3199 14.7367 17.2654 14.913 17.322 15.108C17.4382 15.5085 18.2765 16.0594 18.5975 16.3289C18.78 16.4821 18.9887 16.6036 19.3261 16.6225C20.0486 16.6711 20.4499 16.1152 21.0829 15.907C21.4991 15.771 22.38 15.2515 22.0882 14.6561C21.8392 14.148 21.0005 14.1166 20.5839 13.8366C19.8669 13.359 19.3449 13.3624 18.973 13.4964C18.5655 13.6432 17.8601 14.3182 17.4911 14.6041ZM18.8634 13.1681C19.3471 12.9939 19.976 13.0189 20.7652 13.5447C21.284 13.8935 22.0732 13.8599 22.3861 14.4985C22.7847 15.3119 21.8189 16.0307 21.1832 16.2384C20.5026 16.4625 20.1224 17.0239 19.3054 16.9692C18.8817 16.9454 18.61 16.786 18.3874 16.5991C17.9255 16.2114 17.1451 15.8429 16.9667 15.228C16.8677 14.887 17.0121 14.5417 17.2912 14.3255C17.7424 13.9761 18.352 13.3525 18.8634 13.1681Z"
        fill="#E68C3F" />
    <path fill-rule="evenodd" clip-rule="evenodd"
        d="M21.8429 14.8498C21.8463 14.9137 21.7992 14.9683 21.7378 14.9717C20.8712 15.0208 20.2622 16.0098 19.2835 16.0098C18.7359 16.0098 18.3024 15.7455 17.9924 15.4914C17.93 15.4403 17.3789 15.0154 17.3789 14.9072C17.3789 14.8432 17.4288 14.7913 17.4904 14.7913C17.6055 14.7913 17.9529 15.1683 18.0822 15.2743C18.3742 15.5137 18.8077 15.7782 19.2835 15.7782C20.2524 15.7782 20.8468 14.7903 21.7255 14.7404C21.787 14.7369 21.8395 14.7859 21.8429 14.8498Z"
        fill="#E68C3F" />
    <path
        d="M18.5558 13.8779C18.7195 13.7247 19.2353 13.3079 19.9149 13.7332C20.0623 13.8182 20.2096 13.9119 20.4225 14.0395C20.8565 14.3032 20.6436 14.686 20.1195 14.9242C19.8821 15.0264 19.4891 15.2475 19.1944 15.2305C18.8669 15.1965 18.6458 14.9752 18.4329 14.8306C18.0316 14.5585 18.0563 14.3287 18.2445 14.1501C18.3838 14.014 18.5394 13.8864 18.5558 13.8779Z"
        fill="url(#paint15_linear_375_1966)" />
    <defs>
        <linearGradient id="paint0_linear_375_1966" x1="20.0732" y1="8.27383" x2="19.7965"
            y2="12.0236" gradientUnits="userSpaceOnUse">
            <stop stop-color="white" stop-opacity="0.8" />
            <stop offset="1" stop-color="white" stop-opacity="0" />
        </linearGradient>
        <linearGradient id="paint1_linear_375_1966" x1="16.1217" y1="28.7315" x2="14.0642"
            y2="21.9809" gradientUnits="userSpaceOnUse">
            <stop stop-color="#FFEED7" />
            <stop offset="1" stop-color="#BDBFC2" />
        </linearGradient>
        <linearGradient id="paint2_linear_375_1966" x1="16.1208" y1="28.7314" x2="14.0633"
            y2="21.9807" gradientUnits="userSpaceOnUse">
            <stop stop-color="#FFEED7" />
            <stop offset="1" stop-color="#BDBFC2" />
        </linearGradient>
        <linearGradient id="paint3_linear_375_1966" x1="20.8353" y1="12.4603" x2="20.7187"
            y2="13.3337" gradientUnits="userSpaceOnUse">
            <stop stop-color="white" stop-opacity="0.65" />
            <stop offset="1" stop-color="white" stop-opacity="0" />
        </linearGradient>
        <linearGradient id="paint4_linear_375_1966" x1="18.0425" y1="12.62" x2="18.168" y2="13.3267"
            gradientUnits="userSpaceOnUse">
            <stop stop-color="white" stop-opacity="0.65" />
            <stop offset="1" stop-color="white" stop-opacity="0" />
        </linearGradient>
        <linearGradient id="paint5_linear_375_1966" x1="19.7013" y1="19.9292" x2="19.7222"
            y2="24.9249" gradientUnits="userSpaceOnUse">
            <stop stop-color="white" stop-opacity="0.8" />
            <stop offset="1" stop-color="white" stop-opacity="0" />
        </linearGradient>
        <linearGradient id="paint6_linear_375_1966" x1="19.8137" y1="16.7969" x2="19.8367"
            y2="18.7833" gradientUnits="userSpaceOnUse">
            <stop stop-color="white" stop-opacity="0.65" />
            <stop offset="1" stop-color="white" stop-opacity="0" />
        </linearGradient>
        <linearGradient id="paint7_linear_375_1966" x1="14.6498" y1="18.023" x2="14.6498"
            y2="25.3126" gradientUnits="userSpaceOnUse">
            <stop stop-color="white" stop-opacity="0.65" />
            <stop offset="1" stop-color="white" stop-opacity="0" />
        </linearGradient>
        <linearGradient id="paint8_linear_375_1966" x1="26.2903" y1="17.3108" x2="26.2875"
            y2="23.8975" gradientUnits="userSpaceOnUse">
            <stop stop-color="white" stop-opacity="0.65" />
            <stop offset="1" stop-color="white" stop-opacity="0" />
        </linearGradient>
        <linearGradient id="paint9_linear_375_1966" x1="14.286" y1="28.438" x2="13.1695" y2="32.168"
            gradientUnits="userSpaceOnUse">
            <stop stop-color="#FFA63F" />
            <stop offset="1" stop-color="#FFFF00" />
        </linearGradient>
        <linearGradient id="paint10_linear_375_1966" x1="24.852" y1="27.3034" x2="27.8315"
            y2="31.366" gradientUnits="userSpaceOnUse">
            <stop stop-color="#FFA63F" />
            <stop offset="1" stop-color="#FFFF00" />
        </linearGradient>
        <linearGradient id="paint11_linear_375_1966" x1="25.6502" y1="24.0576" x2="24.6083"
            y2="28.9666" gradientUnits="userSpaceOnUse">
            <stop stop-color="white" stop-opacity="0.65" />
            <stop offset="1" stop-color="white" stop-opacity="0" />
        </linearGradient>
        <linearGradient id="paint12_linear_375_1966" x1="14.0585" y1="25.2712" x2="14.2651"
            y2="30.7958" gradientUnits="userSpaceOnUse">
            <stop stop-color="white" stop-opacity="0.65" />
            <stop offset="1" stop-color="white" stop-opacity="0" />
        </linearGradient>
        <linearGradient id="paint13_linear_375_1966" x1="25.4699" y1="23.9683" x2="25.7115"
            y2="25.6191" gradientUnits="userSpaceOnUse">
            <stop stop-color="white" stop-opacity="0.65" />
            <stop offset="1" stop-color="white" stop-opacity="0" />
        </linearGradient>
        <linearGradient id="paint14_linear_375_1966" x1="19.7065" y1="13.8711" x2="19.7266"
            y2="16.7784" gradientUnits="userSpaceOnUse">
            <stop stop-color="#FFA63F" />
            <stop offset="1" stop-color="#FFFF00" />
        </linearGradient>
        <linearGradient id="paint15_linear_375_1966" x1="19.3888" y1="13.596" x2="19.3833"
            y2="15.1332" gradientUnits="userSpaceOnUse">
            <stop stop-color="white" stop-opacity="0.65" />
            <stop offset="1" stop-color="white" stop-opacity="0" />
        </linearGradient>
    </defs>
</svg>