<svg width="40" height="41" viewBox="0 0 40 41" fill="none" xmlns="http://www.w3.org/2000/svg">
    <path fill-rule="evenodd" clip-rule="evenodd"
        d="M16.2705 2.89111C13.5241 2.89111 11.2978 5.04678 11.2978 7.70593V11.0393H19.9044V11.9652H7.47267C4.72634 11.9652 2.5 14.1209 2.5 16.78V24.0022C2.5 26.6614 4.72634 28.817 7.47267 28.817H10.3415V24.743C10.3415 22.0839 12.5679 19.9281 15.3142 19.9281H24.4945C26.8184 19.9281 28.7021 18.1041 28.7021 15.8541V7.70593C28.7021 5.04678 26.4759 2.89111 23.7295 2.89111H16.2705ZM15.123 8.81704C16.0736 8.81704 16.8442 8.07084 16.8442 7.15038C16.8442 6.2299 16.0736 5.4837 15.123 5.4837C14.1722 5.4837 13.4016 6.2299 13.4016 7.15038C13.4016 8.07084 14.1722 8.81704 15.123 8.81704Z"
        fill="url(#paint0_linear_375_1903)" />
    <path fill-rule="evenodd" clip-rule="evenodd"
        d="M23.7285 37.8912C26.4749 37.8912 28.7013 35.7356 28.7013 33.0765V29.7431H20.0946V28.8172H32.5264C35.2728 28.8172 37.499 26.6615 37.499 24.0024V16.7801C37.499 14.121 35.2728 11.9653 32.5264 11.9653H29.6575V16.0394C29.6575 18.6986 27.4311 20.8542 24.6849 20.8542H15.5045C13.1806 20.8542 11.2969 22.6782 11.2969 24.9282V33.0765C11.2969 35.7356 13.5233 37.8912 16.2695 37.8912H23.7285ZM24.8761 31.9654C23.9254 31.9654 23.1548 32.7115 23.1548 33.632C23.1548 34.5525 23.9254 35.2986 24.8761 35.2986C25.8268 35.2986 26.5974 34.5525 26.5974 33.632C26.5974 32.7115 25.8268 31.9654 24.8761 31.9654Z"
        fill="url(#paint1_linear_375_1903)" />
    <defs>
        <linearGradient id="paint0_linear_375_1903" x1="15.6011" y1="2.89111" x2="15.6011"
            y2="28.817" gradientUnits="userSpaceOnUse">
            <stop stop-color="#327EBD" />
            <stop offset="1" stop-color="#1565A7" />
        </linearGradient>
        <linearGradient id="paint1_linear_375_1903" x1="24.398" y1="11.9653" x2="24.398"
            y2="37.8912" gradientUnits="userSpaceOnUse">
            <stop stop-color="#FFDA4B" />
            <stop offset="1" stop-color="#F9C600" />
        </linearGradient>
    </defs>
</svg>