<svg width="40" height="41" viewBox="0 0 40 41" fill="none" xmlns="http://www.w3.org/2000/svg">
    <path
        d="M32.888 14.1136C32.4731 13.9707 32.0431 13.8356 31.6004 13.7078C31.6732 13.4108 31.7399 13.1177 31.7993 12.8295C32.774 8.09813 32.1367 4.28646 29.9605 3.0315C27.8738 1.82816 24.4611 3.08284 21.0145 6.08233C20.6831 6.37076 20.3507 6.67613 20.0185 6.99617C19.7972 6.78443 19.5762 6.5798 19.3557 6.38407C15.7436 3.17682 12.1229 1.82524 9.94884 3.08383C7.86412 4.29067 7.24675 7.87399 8.12414 12.358C8.20887 12.7911 8.30791 13.2334 8.41991 13.6831C7.90748 13.8285 7.41279 13.9836 6.93946 14.1486C2.70458 15.625 0 17.939 0 20.3392C0 22.8182 2.90337 25.3046 7.31432 26.8123C7.66242 26.9312 8.02361 27.0437 8.39584 27.1505C8.27501 27.6369 8.16992 28.1135 8.08171 28.5784C7.24511 32.9845 7.89844 36.4832 9.97761 37.6824C12.1252 38.9209 15.7295 37.6479 19.2391 34.5801C19.5165 34.3376 19.7949 34.0804 20.0738 33.8108C20.4352 34.1589 20.7962 34.4883 21.1551 34.7974C24.5546 37.7227 27.9122 38.904 29.9894 37.7014C32.1349 36.4594 32.8321 32.701 31.9269 28.1283C31.8578 27.7791 31.7773 27.4223 31.687 27.0592C31.9401 26.9844 32.1886 26.9071 32.4309 26.8268C37.0165 25.3075 40 22.8513 40 20.3392C40 17.9303 37.2082 15.6008 32.888 14.1136ZM31.8934 25.2048C31.6747 25.2772 31.4503 25.3472 31.2216 25.415C30.7154 23.8124 30.0321 22.1083 29.1961 20.3476C29.9939 18.6288 30.6507 16.9464 31.1428 15.3542C31.552 15.4726 31.9491 15.5975 32.3318 15.7293C36.0333 17.0035 38.2912 18.8876 38.2912 20.3392C38.2912 21.8855 35.8528 23.8929 31.8934 25.2048ZM30.2506 28.4602C30.6509 30.4822 30.708 32.3103 30.4429 33.7394C30.2047 35.0236 29.7256 35.8797 29.1332 36.2226C27.8726 36.9523 25.1768 36.0038 22.2696 33.502C21.9363 33.2152 21.6006 32.909 21.2638 32.5849C22.3909 31.3522 23.5173 29.9192 24.6167 28.3277C26.5504 28.1561 28.3773 27.8756 30.0341 27.4926C30.1157 27.8217 30.1881 28.1446 30.2506 28.4602ZM13.6369 36.0965C12.4053 36.5315 11.4244 36.5439 10.8314 36.202C9.56971 35.4743 9.04518 32.6652 9.76066 28.8971C9.84261 28.4655 9.94016 28.0222 10.0526 27.5691C11.6912 27.9314 13.5047 28.1922 15.443 28.3493C16.5498 29.9067 17.7088 31.3381 18.8768 32.5915C18.6216 32.8379 18.3674 33.0724 18.1146 33.2934C16.5627 34.65 15.0075 35.6124 13.6369 36.0965ZM7.86697 25.1953C5.91653 24.5287 4.30579 23.6623 3.2017 22.7168C2.2096 21.8672 1.70872 21.0237 1.70872 20.3392C1.70872 18.8827 3.88023 17.0249 7.50193 15.7622C7.94137 15.609 8.40139 15.4646 8.87879 15.3289C9.37932 16.9571 10.0359 18.6594 10.8283 20.3808C10.0257 22.1278 9.35974 23.8572 8.85429 25.5045C8.51396 25.4066 8.18424 25.3037 7.86697 25.1953ZM9.8011 12.0298C9.04938 8.18805 9.54863 5.28995 10.8049 4.56272C12.1431 3.788 15.1023 4.89259 18.2211 7.66189C18.4204 7.83889 18.6206 8.02415 18.8213 8.21582C17.6591 9.46373 16.5107 10.8844 15.4138 12.4326C13.5325 12.607 11.7317 12.8871 10.0761 13.2622C9.97198 12.8434 9.87978 12.432 9.8011 12.0298ZM27.0553 16.2903C26.6595 15.6067 26.2532 14.9392 25.8389 14.2899C27.1152 14.4513 28.338 14.6654 29.4863 14.9275C29.1415 16.0324 28.7118 17.1876 28.206 18.3719C27.8432 17.683 27.4594 16.9884 27.0553 16.2903ZM20.0191 9.43703C20.8073 10.2909 21.5966 11.2443 22.3729 12.2787C21.5906 12.2417 20.7986 12.2225 20 12.2225C19.209 12.2225 18.4228 12.2413 17.6453 12.2776C18.4224 11.2528 19.2186 10.3008 20.0191 9.43703ZM12.9378 16.3022C12.5424 16.9877 12.1658 17.6785 11.8086 18.3706C11.311 17.1904 10.8853 16.03 10.5376 14.9094C11.6788 14.654 12.8959 14.4452 14.164 14.2869C13.7439 14.9422 13.3342 15.6147 12.9378 16.3022ZM14.2005 26.5134C12.8903 26.3673 11.655 26.1692 10.514 25.9208C10.8673 24.7803 11.3024 23.595 11.8106 22.3895C12.1686 23.0811 12.5468 23.7721 12.9446 24.4592C13.3498 25.1592 13.7696 25.8448 14.2005 26.5134ZM20.0664 31.3619C19.2565 30.4881 18.4486 29.5215 17.6597 28.4818C18.4256 28.5118 19.2064 28.5272 20 28.5272C20.8153 28.5272 21.6213 28.5088 22.4146 28.4735C21.6357 29.5319 20.8492 30.5 20.0664 31.3619ZM28.2223 22.3281C28.757 23.5466 29.2077 24.7257 29.5655 25.8468C28.4057 26.1114 27.1536 26.3245 25.8342 26.4828C26.2495 25.8248 26.6594 25.1458 27.0621 24.4474C27.4696 23.7409 27.8565 23.0332 28.2223 22.3281ZM25.582 23.5938C24.9567 24.6779 24.3148 25.7129 23.6631 26.6898C22.4761 26.7747 21.2498 26.8184 20 26.8184C18.7552 26.8184 17.5444 26.7797 16.3784 26.704C15.7005 25.7143 15.0446 24.6763 14.4233 23.6031C13.8037 22.5328 13.2335 21.4535 12.7167 20.3802C13.2333 19.3045 13.8022 18.224 14.4182 17.1556L14.4181 17.1558C15.0358 16.0846 15.686 15.0517 16.3576 14.0681C17.5473 13.9782 18.7671 13.9313 19.9999 13.9313C21.2383 13.9313 22.4598 13.9786 23.649 14.0693C24.3105 15.0456 24.9562 16.0752 25.5763 17.1466C26.2035 18.23 26.7797 19.3033 27.3007 20.356C26.7813 21.4267 26.2064 22.5109 25.582 23.5938ZM29.107 4.51188C30.4465 5.28433 30.9674 8.39959 30.1258 12.4847C30.0721 12.7453 30.0116 13.0108 29.946 13.2799C28.2865 12.897 26.4844 12.612 24.5977 12.435C23.4986 10.8699 22.3596 9.44693 21.2164 8.21504C21.5237 7.91935 21.8307 7.6374 22.1363 7.37132C25.0894 4.80138 27.8495 3.78672 29.107 4.51188ZM20 16.7674C21.9727 16.7674 23.5719 18.3665 23.5719 20.3392C23.5719 22.3119 21.9727 23.9111 20 23.9111C18.0273 23.9111 16.4281 22.3119 16.4281 20.3392C16.4281 18.3665 18.0273 16.7674 20 16.7674Z"
        fill="#00D8FF" />
</svg>