<svg width="30" height="26" viewBox="0 0 30 26" fill="none" xmlns="http://www.w3.org/2000/svg">
    <path d="M22.3126 17.2005L25.9837 2.82589H30V0.566406H24.2288L23.3634 3.95497L0 3.93826L2.48387 17.2004H22.3126V17.2005ZM22.7865 6.21406L20.5576 14.941H4.35945L2.72228 6.1997L22.7865 6.21406Z"
          fill="url(#paint0_linear_509_1302)"/>
    <path d="M19.2196 25.4356C21.2119 25.4356 22.8328 23.8146 22.8328 21.8222C22.8328 19.8299 21.2119 18.209 19.2196 18.209H5.60612C3.61375 18.209 1.9928 19.8299 1.9928 21.8222C1.9928 23.8146 3.61371 25.4356 5.60612 25.4356C7.59852 25.4356 9.2194 23.8146 9.2194 21.8222C9.2194 21.3438 9.12567 20.8868 8.956 20.4685H15.8697C15.7 20.8868 15.6062 21.3438 15.6062 21.8222C15.6063 23.8146 17.2272 25.4356 19.2196 25.4356ZM6.95991 21.8222C6.95991 22.5688 6.35261 23.1761 5.60612 23.1761C4.85962 23.1761 4.25228 22.5688 4.25228 21.8222C4.25228 21.0758 4.85959 20.4685 5.60612 20.4685C6.35261 20.4685 6.95991 21.0758 6.95991 21.8222ZM20.5734 21.8222C20.5734 22.5688 19.9661 23.1761 19.2196 23.1761C18.4731 23.1761 17.8658 22.5688 17.8658 21.8222C17.8658 21.0758 18.4731 20.4685 19.2196 20.4685C19.9661 20.4685 20.5734 21.0758 20.5734 21.8222Z"
          fill="url(#paint1_linear_509_1302)"/>
    <defs>
        <linearGradient id="paint0_linear_509_1302" x1="0.256411" y1="2.41464" x2="31.7822" y2="4.71845"
                        gradientUnits="userSpaceOnUse">
            <stop stop-color="#8D621D"/>
            <stop offset="1" stop-color="#B79766"/>
        </linearGradient>
        <linearGradient id="paint1_linear_509_1302" x1="2.17092" y1="19.0119" x2="23.8912" y2="21.5499"
                        gradientUnits="userSpaceOnUse">
            <stop stop-color="#8D621D"/>
            <stop offset="1" stop-color="#B79766"/>
        </linearGradient>
    </defs>
</svg>
