<svg width="40" height="41" viewBox="0 0 40 41" fill="none" xmlns="http://www.w3.org/2000/svg">
    <g clip-path="url(#clip0_375_1919)">
        <path fill-rule="evenodd" clip-rule="evenodd"
            d="M28.2059 6.21997C28.8614 6.87405 29.6042 7.61488 29.6042 7.61488C29.6042 7.61488 32.6628 7.84235 32.807 7.85485C32.9526 7.86735 33.1279 7.97861 33.1553 8.17986C33.1827 8.38111 37.5 37.7174 37.5 37.7174L26.9059 40.0203L28.2059 6.21997ZM26.5808 5.10877C26.4996 5.11929 26.4292 5.13531 26.3802 5.14987C26.3541 5.15737 25.9163 5.29363 25.1911 5.51863C24.4809 3.46613 23.2283 1.57987 21.0255 1.57987C20.9646 1.57987 20.9011 1.58238 20.839 1.58613C20.2121 0.753631 19.4359 0.391113 18.7655 0.391113C13.6322 0.391113 11.1794 6.84112 10.4107 10.1174C8.41563 10.7386 6.99892 11.1799 6.81857 11.2374C5.7041 11.5886 5.66927 11.6236 5.52375 12.6774C5.41305 13.4761 2.5 36.1174 2.5 36.1174L25.1998 40.3911L25.2239 40.3859L26.5808 5.10877ZM20.671 6.70113C20.671 6.77988 20.6698 6.85238 20.6698 6.92488C19.4198 7.31363 18.0627 7.73612 16.702 8.15987C17.4657 5.19737 18.8973 3.76609 20.1499 3.22609C20.4646 4.02109 20.671 5.16238 20.671 6.70113ZM18.6237 1.77488C18.8464 1.77488 19.069 1.85113 19.2829 1.99863C17.6374 2.77613 15.8749 4.73611 15.1298 8.64861C14.0415 8.98736 12.978 9.31862 11.9941 9.62487C12.866 6.63987 14.937 1.77488 18.6237 1.77488ZM19.5081 19.2186C19.5081 19.2186 18.1797 18.5061 16.5515 18.5061C14.1633 18.5061 14.0427 20.0124 14.0427 20.3911C14.0427 22.4624 19.4135 23.2561 19.4135 28.1061C19.4135 31.9211 17.0055 34.3786 13.7579 34.3786C9.86095 34.3786 7.86835 31.9411 7.86835 31.9411L8.91192 28.4774C8.91192 28.4774 10.9605 30.2449 12.6894 30.2449C13.8176 30.2449 14.2778 29.3511 14.2778 28.6986C14.2778 25.9974 9.87091 25.8761 9.87091 21.4374C9.87091 17.7024 12.5389 14.0874 17.9247 14.0874C19.9994 14.0874 21.0255 14.6849 21.0255 14.6849L19.5081 19.2186ZM22.0156 6.50612C22.0156 6.36987 22.0169 6.23611 22.0169 6.08986C22.0169 4.81486 21.8402 3.78736 21.5579 2.97361C22.6935 3.11611 23.4497 4.41484 23.9361 5.90859C23.3664 6.08609 22.7184 6.28737 22.0156 6.50612Z"
            fill="#81BF37" />
    </g>
    <defs>
        <clipPath id="clip0_375_1919">
            <rect width="40" height="40" fill="white" transform="translate(0 0.391113)" />
        </clipPath>
    </defs>
</svg>