<svg width="40" height="41" viewBox="0 0 40 41" fill="none" xmlns="http://www.w3.org/2000/svg">
    <g clip-path="url(#clip0_375_1957)">
        <path
            d="M40.0008 11.4749V10.2685C39.9631 9.40138 39.9254 8.49657 39.7746 7.62947C39.6238 6.76236 39.3599 5.93295 38.9452 5.14125C38.5305 4.34954 38.0404 3.63323 37.3995 3.03003C36.7585 2.38912 36.0422 1.89902 35.2882 1.48431C34.4965 1.06961 33.6671 0.805716 32.8 0.654915C31.9329 0.504114 31.0658 0.428711 30.161 0.428711H9.91595C9.68975 0.428711 9.46355 0.428713 9.27504 0.466414C8.63414 0.504114 7.95553 0.541814 7.31463 0.654915C6.67372 0.768016 6.03282 0.956515 5.42961 1.18272C5.24111 1.25812 5.01491 1.37122 4.82641 1.44662C4.22321 1.74823 3.6954 2.12523 3.16759 2.53993C3.01679 2.69073 2.8283 2.84152 2.6775 2.99233C2.03659 3.63323 1.54648 4.34954 1.13178 5.10354C0.717078 5.89525 0.453177 6.72466 0.302376 7.59176C0.151575 8.45887 0.113872 9.32598 0.0761719 10.2308V30.4758C0.113872 31.3429 0.151575 32.2478 0.302376 33.1149C0.453177 33.982 0.717078 34.8114 1.13178 35.6031C1.54648 36.3948 2.03659 37.1111 2.6775 37.7143C3.3184 38.3552 4.0347 38.8453 4.78871 39.26C5.58041 39.6747 6.40982 39.9386 7.27693 40.0894C8.14403 40.2402 9.01114 40.3156 9.91595 40.3156H30.161C31.0281 40.2779 31.9329 40.2402 32.8 40.0894C33.6671 39.9386 34.4965 39.6747 35.2882 39.26C36.0799 38.8453 36.7962 38.3552 37.3995 37.7143C38.0404 37.0734 38.5305 36.3571 38.9452 35.6031C39.3599 34.8114 39.6238 33.982 39.7746 33.1149C39.9254 32.2478 40.0008 31.3806 40.0008 30.4758V29.2694V12.8698V11.4749Z"
            fill="#F05138" />
        <path
            d="M31.6687 25.0849L31.7818 24.6325C33.4406 18.035 29.4067 10.1933 22.5452 6.08398C25.5612 10.1556 26.8808 15.0943 25.712 19.3922C25.5989 19.7692 25.4858 20.1462 25.335 20.5232C25.1842 20.4101 24.9957 20.297 24.7318 20.1839C24.7318 20.1839 17.9081 15.9615 10.5188 8.5345C10.3303 8.346 14.4774 14.4534 19.1522 19.3922C16.9279 18.1481 10.7827 13.6617 6.86191 10.1179C7.35201 10.9096 7.91752 11.7013 8.52072 12.4176C11.7629 16.5647 16.0231 21.6542 21.1126 25.575C17.5311 27.7617 12.4792 27.9502 7.46511 25.575C6.221 25.0095 5.05229 24.2932 3.95898 23.5015C6.0702 26.8945 9.35012 29.8352 13.3464 31.5694C18.0966 33.6052 22.8468 33.4921 26.353 31.6071C26.353 31.6071 26.3907 31.6071 26.3907 31.5694C26.5415 31.494 26.6923 31.3809 26.8431 31.3055C28.5396 30.4384 31.8572 29.5713 33.6668 33.0397C34.1946 33.8314 35.1371 29.3074 31.6687 25.0849Z"
            fill="white" />
    </g>
    <defs>
        <clipPath id="clip0_375_1957">
            <rect width="40" height="40" fill="white" transform="translate(0 0.391113)" />
        </clipPath>
    </defs>
</svg>