<svg width="130" height="133" viewBox="0 0 130 133" fill="none" xmlns="http://www.w3.org/2000/svg">
<path d="M128.133 30.9649L98.4352 1.36242C96.6128 -0.454139 93.6581 -0.454139 91.8357 1.36242C90.0132 3.17897 90.0132 6.12419 91.8357 7.94074L113.567 29.6025H56.782L34.506 7.39814L7.56344 34.2541L30.2002 56.818L30.2 117.134L8.46693 95.5389C6.64439 93.7279 3.68947 93.7368 1.86692 95.5587C0.0443666 97.3806 0.0443611 100.326 1.8669 102.137L31.5669 131.648C33.3894 133.459 36.3444 133.45 38.1669 131.628L67.8671 101.938C69.6896 100.116 69.6896 97.1714 67.8671 95.3605C66.0445 93.5495 63.0896 93.5584 61.2671 95.3803L39.5339 117.106L39.534 56.0981L56.782 38.9056H113.567L91.8357 60.5674C90.0132 62.3839 90.0132 65.3291 91.8357 67.1457C93.6581 68.9622 96.6128 68.9622 98.4352 67.1457L128.133 37.5432C129.956 35.7267 129.956 32.7814 128.133 30.9649Z" fill="url(#paint0_linear_375_1347)"/>
<defs>
<linearGradient id="paint0_linear_375_1347" x1="1.60257" y1="14.7778" x2="137.677" y2="20.1256" gradientUnits="userSpaceOnUse">
<stop stop-color="#8D611D"/>
<stop offset="1" stop-color="#B79766"/>
</linearGradient>
</defs>
</svg>
