<svg width="21" height="21" viewBox="0 0 21 21" fill="none" xmlns="http://www.w3.org/2000/svg">
<path d="M8.59 1.91L10.67 4H8.5C6.37827 4 4.34344 4.84285 2.84315 6.34315C1.34285 7.84344 0.5 9.87827 0.5 12H2.5C2.5 10.4087 3.13214 8.88258 4.25736 7.75736C5.38258 6.63214 6.9087 6 8.5 6H10.67L8.58 8.09L10 9.5L14.5 5L13.09 3.59L10 0.5L8.59 1.91ZM20.5 11V21H4.5V11H20.5ZM18.5 17.56V14.45C17.8989 14.1009 17.3991 13.6011 17.05 13H7.95C7.60087 13.6011 7.10112 14.1009 6.5 14.45V17.56C7.09264 17.9089 7.58519 18.4049 7.93 19H17.05C17.4004 18.4024 17.9 17.9062 18.5 17.56ZM12.5 18C11.672 18 11 17.105 11 16C11 14.895 11.672 14 12.5 14C13.328 14 14 14.895 14 16C14 17.105 13.328 18 12.5 18Z" fill="white"/>
</svg>
